<svg width="1075" height="585" viewBox="0 0 1075 585" fill="none" xmlns="http://www.w3.org/2000/svg">
<g clip-path="url(#clip0_855_242)">
<path d="M540.644 584.232C831.974 584.232 1068.14 568.597 1068.14 549.31C1068.14 530.024 831.974 514.389 540.644 514.389C249.313 514.389 13.1436 530.024 13.1436 549.31C13.1436 568.597 249.313 584.232 540.644 584.232Z" fill="#F2F2F2"/>
<path d="M520.425 167.01C434.481 167.01 372.774 222.149 372.774 350.808C372.774 496.621 434.481 535.218 520.425 535.218C606.369 535.218 671.752 492.945 671.752 350.808C671.752 198.868 606.369 167.01 520.425 167.01ZM520.99 486.818C461.463 486.818 430.364 451.895 430.364 350.902C430.364 261.79 462.737 214.797 522.263 214.797C581.79 214.797 614.162 245.665 614.162 350.902C614.162 449.349 580.517 486.818 520.99 486.818Z" fill="#2F2E41"/>
<path d="M321.312 433.517H285.777V328.878C285.777 323.32 283.57 317.99 279.64 314.06C275.71 310.13 270.379 307.922 264.822 307.922H256.495C253.743 307.922 251.018 308.464 248.476 309.517C245.933 310.57 243.623 312.114 241.677 314.06C239.731 316.006 238.188 318.316 237.134 320.859C236.081 323.401 235.539 326.126 235.539 328.878V433.517H135.309C133.247 433.517 131.22 432.984 129.425 431.97C127.63 430.956 126.127 429.495 125.063 427.729C123.998 425.963 123.409 423.952 123.351 421.891C123.293 419.83 123.768 417.788 124.732 415.965L230.814 215.185C232.137 212.682 232.938 209.937 233.17 207.115C233.403 204.293 233.061 201.454 232.166 198.768C231.27 196.082 229.84 193.606 227.961 191.488C226.082 189.37 223.794 187.655 221.234 186.446L214.971 183.489C210.109 181.193 204.549 180.854 199.444 182.542C194.338 184.23 190.077 187.817 187.542 192.559L58.1605 434.592C55.9573 438.713 54.8047 443.314 54.8047 447.988C54.8047 451.719 55.5397 455.414 56.9677 458.862C58.3957 462.31 60.4888 465.442 63.1275 468.081C65.7661 470.719 68.8987 472.812 72.3463 474.241C75.7938 475.669 79.4889 476.404 83.2205 476.404H235.539V542.571C235.539 545.869 236.189 549.136 237.451 552.183C238.714 555.231 240.564 558 242.896 560.333C245.229 562.665 247.998 564.515 251.046 565.778C254.093 567.04 257.36 567.69 260.658 567.69C263.957 567.69 267.223 567.04 270.271 565.778C273.319 564.515 276.088 562.665 278.42 560.333C280.753 558 282.603 555.231 283.865 552.183C285.128 549.136 285.777 545.869 285.777 542.571V476.404H321.312C326.999 476.404 332.453 474.144 336.474 470.123C340.496 466.102 342.755 460.648 342.755 454.96C342.755 449.273 340.496 443.819 336.474 439.798C332.453 435.777 326.999 433.517 321.312 433.517Z" fill="#FB0932"/>
<path d="M979.308 433.517H943.773V328.878C943.773 323.32 941.566 317.99 937.636 314.06C933.706 310.13 928.375 307.922 922.818 307.922H914.491C911.739 307.922 909.014 308.464 906.472 309.517C903.929 310.57 901.619 312.114 899.673 314.06C897.727 316.006 896.184 318.316 895.131 320.859C894.077 323.401 893.535 326.126 893.535 328.878V433.517H793.305C791.243 433.517 789.216 432.984 787.421 431.97C785.626 430.956 784.123 429.495 783.059 427.729C781.995 425.963 781.405 423.952 781.347 421.891C781.289 419.83 781.764 417.788 782.728 415.965L888.81 215.185C890.133 212.682 890.934 209.937 891.167 207.115C891.399 204.293 891.057 201.454 890.162 198.768C889.266 196.082 887.836 193.606 885.957 191.488C884.078 189.37 881.79 187.655 879.23 186.446L872.967 183.489C868.105 181.193 862.546 180.854 857.44 182.542C852.334 184.23 848.073 187.817 845.538 192.559L716.157 434.592C713.953 438.713 712.801 443.314 712.801 447.988C712.801 455.524 715.795 462.752 721.124 468.081C726.453 473.41 733.68 476.404 741.217 476.404H893.535V542.571C893.535 549.233 896.182 555.622 900.893 560.333C905.603 565.043 911.992 567.69 918.654 567.69C925.316 567.69 931.705 565.043 936.416 560.333C941.127 555.622 943.773 549.233 943.773 542.571V476.404H979.308C984.995 476.404 990.449 474.144 994.47 470.123C998.492 466.102 1000.75 460.648 1000.75 454.96C1000.75 449.273 998.492 443.819 994.47 439.798C990.449 435.777 984.995 433.517 979.308 433.517Z" fill="#FB0932"/>
<path d="M331.113 421.264H295.579V316.624C295.579 313.872 295.037 311.147 293.984 308.605C292.931 306.062 291.387 303.752 289.441 301.806C287.495 299.86 285.185 298.317 282.643 297.263C280.1 296.21 277.375 295.668 274.623 295.668H266.297C260.739 295.668 255.409 297.876 251.479 301.806C247.549 305.736 245.341 311.066 245.341 316.624V421.264H145.111C143.049 421.264 141.022 420.731 139.227 419.716C137.432 418.702 135.929 417.241 134.865 415.475C133.8 413.709 133.21 411.698 133.152 409.637C133.094 407.576 133.57 405.535 134.533 403.712L240.616 202.931C241.938 200.428 242.74 197.683 242.972 194.861C243.205 192.04 242.863 189.2 241.967 186.514C241.072 183.828 239.642 181.352 237.763 179.234C235.884 177.116 233.595 175.401 231.035 174.192L224.773 171.235C219.91 168.939 214.351 168.6 209.246 170.288C204.14 171.976 199.879 175.563 197.344 180.305L67.9623 422.338C65.7591 426.459 64.6064 431.06 64.6064 435.734C64.6064 443.27 67.6003 450.498 72.9293 455.827C78.2583 461.156 85.4859 464.15 93.0223 464.15H245.341V530.317C245.341 533.616 245.991 536.882 247.253 539.93C248.515 542.977 250.366 545.746 252.698 548.079C255.031 550.411 257.8 552.262 260.847 553.524C263.895 554.786 267.161 555.436 270.46 555.436C277.122 555.436 283.511 552.789 288.222 548.079C292.933 543.368 295.579 536.979 295.579 530.317V464.15H331.113C333.929 464.15 336.718 463.595 339.319 462.517C341.921 461.44 344.285 459.86 346.276 457.869C348.267 455.878 349.847 453.514 350.924 450.913C352.002 448.311 352.556 445.523 352.556 442.707C352.556 439.891 352.002 437.102 350.924 434.501C349.847 431.899 348.267 429.535 346.276 427.544C344.285 425.553 341.921 423.973 339.319 422.896C336.718 421.818 333.929 421.264 331.113 421.264Z" stroke="#3F3D56" stroke-miterlimit="10"/>
<path d="M997.688 421.264H962.153V316.624C962.153 311.066 959.946 305.736 956.016 301.806C952.086 297.876 946.755 295.668 941.198 295.668H932.871C930.119 295.668 927.394 296.21 924.852 297.263C922.309 298.317 919.999 299.86 918.053 301.806C916.107 303.752 914.564 306.062 913.51 308.605C912.457 311.147 911.915 313.872 911.915 316.624V421.264H811.685C809.623 421.264 807.596 420.731 805.801 419.716C804.006 418.702 802.503 417.241 801.439 415.475C800.374 413.709 799.785 411.698 799.727 409.637C799.669 407.576 800.144 405.535 801.108 403.712L907.19 202.931C908.513 200.428 909.314 197.683 909.547 194.861C909.779 192.04 909.437 189.2 908.542 186.514C907.646 183.828 906.216 181.352 904.337 179.234C902.458 177.116 900.17 175.401 897.61 174.192L891.347 171.235C886.485 168.939 880.925 168.6 875.82 170.288C870.714 171.976 866.453 175.563 863.918 180.305L734.536 422.338C732.333 426.459 731.181 431.06 731.181 435.734C731.181 443.27 734.174 450.498 739.503 455.827C744.832 461.156 752.06 464.15 759.596 464.15H911.915V530.317C911.915 536.979 914.562 543.368 919.272 548.079C923.983 552.789 930.372 555.436 937.034 555.436C943.696 555.436 950.085 552.789 954.796 548.079C959.507 543.368 962.153 536.979 962.153 530.317V464.15H997.688C1000.5 464.15 1003.29 463.595 1005.89 462.517C1008.5 461.44 1010.86 459.86 1012.85 457.869C1014.84 455.878 1016.42 453.514 1017.5 450.913C1018.58 448.311 1019.13 445.523 1019.13 442.707C1019.13 437.02 1016.87 431.565 1012.85 427.544C1008.83 423.523 1003.37 421.264 997.688 421.264Z" stroke="#3F3D56" stroke-miterlimit="10"/>
<path d="M540.031 155.982C454.087 155.982 392.38 211.122 392.38 339.78C392.38 485.593 454.087 524.191 540.031 524.191C625.975 524.191 691.358 481.917 691.358 339.78C691.358 187.841 625.975 155.982 540.031 155.982ZM540.596 475.791C481.069 475.791 449.97 440.868 449.97 339.875C449.97 250.763 482.342 203.77 541.869 203.77C601.396 203.77 633.768 234.638 633.768 339.875C633.768 438.322 600.123 475.791 540.596 475.791Z" stroke="#3F3D56" stroke-miterlimit="10"/>
<path d="M471.141 31.152C478.267 31.152 484.043 25.3759 484.043 18.2508C484.043 11.1257 478.267 5.34961 471.141 5.34961C464.016 5.34961 458.24 11.1257 458.24 18.2508C458.24 25.3759 464.016 31.152 471.141 31.152Z" fill="#2F2E41"/>
<path d="M502.607 93.7695C522.592 93.7695 538.793 72.7785 538.793 46.8848C538.793 20.991 522.592 0 502.607 0C482.622 0 466.421 20.991 466.421 46.8848C466.421 72.7785 482.622 93.7695 502.607 93.7695Z" fill="#2F2E41"/>
<path opacity="0.1" d="M502.607 79.6095C484.48 79.6095 469.466 62.339 466.831 39.8047C466.557 42.1547 466.42 44.5187 466.421 46.8846C466.421 72.7783 482.622 93.7694 502.607 93.7694C522.592 93.7694 538.793 72.7784 538.793 46.8846C538.794 44.5187 538.657 42.1547 538.383 39.8047C535.748 62.339 520.735 79.6095 502.607 79.6095Z" fill="black"/>
<path d="M576.242 184.188C575.465 187.381 572.114 189.939 568.403 191.726C560.601 195.483 550.978 196.604 541.643 196.98C539.262 197.125 536.873 197.081 534.499 196.848C529.898 196.403 525.582 194.419 522.248 191.217C522.01 191.062 521.816 190.849 521.682 190.598C521.549 190.347 521.481 190.067 521.486 189.783C521.49 189.499 521.566 189.22 521.707 188.974C521.848 188.727 522.05 188.521 522.292 188.373C527.262 182.914 535.554 179.567 543.908 177.157C550.243 175.329 561.29 170.596 568.198 171.235C574.89 171.853 577.223 180.156 576.242 184.188Z" fill="#3F3D56"/>
<path opacity="0.1" d="M576.242 184.188C575.465 187.381 572.114 189.939 568.403 191.726C560.601 195.483 550.978 196.604 541.643 196.98C539.262 197.125 536.873 197.081 534.499 196.848C529.898 196.403 525.582 194.419 522.248 191.217C522.01 191.062 521.816 190.849 521.682 190.598C521.549 190.347 521.481 190.067 521.486 189.783C521.49 189.499 521.566 189.22 521.707 188.974C521.848 188.727 522.05 188.521 522.292 188.373C527.262 182.914 535.554 179.567 543.908 177.157C550.243 175.329 561.29 170.596 568.198 171.235C574.89 171.853 577.223 180.156 576.242 184.188Z" fill="black"/>
<path d="M477.044 160.321C474.662 164.989 474.231 170.411 475.845 175.396C477.487 180.343 480.559 184.692 484.674 187.893C494.769 195.984 508.662 197.098 521.599 196.985C532.937 196.887 544.259 196.111 555.504 194.662C559.273 194.328 562.976 193.468 566.506 192.107C570.728 190.28 574.439 186.93 575.942 182.581C577.445 178.233 576.378 172.909 572.808 170.007C569.671 167.457 565.345 167.107 561.31 166.864L538.222 165.477C540.503 163.168 543.541 161.863 546.318 160.185C550.004 157.958 552.452 154.22 555.131 150.85C559.26 145.916 563.752 141.297 568.57 137.033C569.321 141.343 572.048 144.883 575.257 147.857C578.467 150.831 582.166 153.225 585.501 156.057C593.58 162.915 599.397 172.224 607.893 178.558C613.738 177.022 619.202 174.294 623.942 170.545L620.64 164.564C620.365 163.948 619.936 163.414 619.395 163.011C618.461 162.436 617.256 162.732 616.17 162.57C613.27 162.135 612.003 158.786 610.864 156.082C607.739 148.661 601.756 142.902 596.647 136.678C592.875 132.084 589.529 127.156 586.651 121.956C584.934 118.854 583.363 115.625 581.033 112.952C578.704 110.28 575.44 108.179 571.895 108.172C568.763 108.165 565.874 109.755 563.181 111.355C554.978 116.227 547.086 121.604 539.55 127.454C535.607 130.516 531.687 133.75 527.061 135.628C525.114 136.418 523.061 136.958 521.192 137.92C517.919 139.604 515.435 142.454 512.761 144.984C503.223 154.007 490.165 159.854 477.044 160.321Z" fill="#3F3D56"/>
<path d="M525.319 96.0978C525.212 98.856 524.625 101.574 523.586 104.131C523.058 105.406 522.274 106.559 521.282 107.518C520.29 108.477 519.11 109.221 517.818 109.704C515.982 110.196 514.058 110.258 512.195 109.886C510.57 109.717 509.004 109.183 507.613 108.326C505.448 106.837 504.369 104.182 503.976 101.582C503.582 98.9864 503.759 96.3338 503.507 93.719C503.262 91.6069 502.86 89.516 502.305 87.4635C502.135 86.7807 501.962 86.101 501.792 85.4214C501.625 84.7417 501.462 84.062 501.311 83.3823C501.172 82.7436 501.043 82.1017 500.933 81.4566C500.842 80.9122 500.76 80.3647 500.7 79.8141C500.645 78.1816 500.373 76.5637 499.891 75.0029C499.439 73.9906 498.874 73.0331 498.205 72.1489C497.918 71.7398 497.642 71.3308 497.387 70.906C496.65 69.802 496.307 68.4814 496.414 67.1583C496.445 66.9538 496.494 66.7526 496.562 66.5573C496.587 66.4818 496.616 66.4063 496.647 66.3339C496.93 66.2571 497.19 66.1123 497.405 65.9121C497.619 65.7119 497.782 65.4625 497.878 65.1853C497.986 64.5901 497.935 63.9767 497.73 63.4075C497.495 62.6121 497.173 61.845 496.77 61.1199C496.506 60.6416 495.609 59.7794 495.603 59.2319C495.59 58.1306 497.742 57.2432 498.614 56.809C501.274 55.4767 504.241 54.8751 507.211 55.0658C509.114 55.1948 511.178 55.78 512.229 57.3754C513.173 58.8134 513.047 60.6762 513.45 62.3471C513.493 62.5899 513.595 62.8182 513.749 63.011C513.955 63.1981 514.213 63.3168 514.489 63.3508C514.955 63.4435 515.433 63.4627 515.905 63.4075H515.908C516.033 63.3976 516.157 63.3797 516.279 63.354C517.014 63.2183 517.709 62.9182 518.312 62.4761C518.702 62.3722 519.095 62.2873 519.492 62.2212C519.508 62.2196 519.524 62.2164 519.539 62.2117C521.116 67.1866 521.32 72.5201 522.61 77.5862C523.249 80.1066 524.165 82.5956 524.294 85.1884C524.303 85.3017 524.306 85.4181 524.309 85.5345C524.328 86.3684 524.262 87.2085 524.297 88.0393C524.309 88.4133 524.351 88.7858 524.423 89.1532C524.564 89.744 524.739 90.326 524.948 90.8964L524.958 90.9247C525.017 91.1072 525.074 91.2929 525.121 91.4785C525.156 91.6138 525.187 91.746 525.212 91.8813L525.216 91.8907C525.449 93.2812 525.483 94.6976 525.319 96.0978Z" fill="#FBBEBE"/>
<path d="M503.237 63.5619C513.49 63.5619 521.802 55.25 521.802 44.9968C521.802 34.7435 513.49 26.4316 503.237 26.4316C492.984 26.4316 484.672 34.7435 484.672 44.9968C484.672 55.25 492.984 63.5619 503.237 63.5619Z" fill="#FBBEBE"/>
<path d="M621.103 146.147C620.565 141.082 618.764 136.233 615.867 132.044C616.348 134.908 616.831 137.77 617.314 140.631C616.713 140.805 616.075 140.8 615.477 140.616C614.878 140.432 614.347 140.078 613.948 139.596C613.166 138.62 612.568 137.51 612.182 136.321C610.073 131.085 607.315 126.134 603.973 121.585C592.154 120.6 580.47 115.701 570.077 109.99C559.681 104.282 549.951 97.4376 539.693 91.4873C537.915 90.4124 536.062 89.4659 534.149 88.6553C530.939 87.3683 527.337 86.7013 524.294 85.1878C524.089 85.0871 523.885 84.9801 523.683 84.8699C522.996 84.4961 522.345 84.0589 521.739 83.5641C521.411 83.2981 521.1 83.0122 520.807 82.7082C519.289 80.942 518.085 78.9283 517.248 76.7548C515.615 73.1425 515.033 68.7844 513.403 65.1721C514.152 64.4719 514.994 63.878 515.905 63.4068H515.908C516.04 63.3376 516.172 63.2715 516.308 63.2086C516.953 62.9048 517.623 62.6595 518.312 62.4754C518.702 62.3716 519.096 62.2866 519.492 62.2205C519.508 62.2189 519.524 62.2157 519.539 62.2111C521.378 61.9115 523.261 62.0605 525.03 62.6453C527.617 63.5201 529.797 65.2665 531.972 66.9184C535.504 69.407 538.892 72.0944 542.119 74.9675C543.913 76.6855 545.549 78.5735 547.478 80.1343C549.081 81.3713 550.771 82.4913 552.535 83.4854C562.972 89.7032 573.411 95.9198 583.85 102.135C587.384 104.241 590.92 106.346 594.376 108.573C599.624 111.959 604.684 115.628 609.74 119.294C612.72 121.453 615.699 123.612 618.677 125.773C619.654 126.396 620.512 127.189 621.21 128.114C621.827 129.164 622.21 130.335 622.333 131.547C623.081 136.443 622.659 141.446 621.103 146.147Z" fill="#FBBEBE"/>
<path d="M529.923 110.059C528.671 115.676 522.994 119.071 520.027 124.005C516.339 130.128 517.843 137.246 519.228 144.26C516.698 146.44 514.167 148.621 511.635 150.801C510.238 152 508.841 153.205 507.337 154.266C505.144 155.735 502.852 157.052 500.477 158.205C498.237 159.357 495.996 160.51 493.756 161.664C491.673 162.835 489.466 163.77 487.176 164.451C482.762 165.584 478.073 164.791 473.706 163.479C473.191 163.344 472.695 163.142 472.233 162.878C471.961 162.716 471.723 162.501 471.535 162.246C471.104 161.474 470.947 160.579 471.091 159.706C471.534 152.356 473.331 145.159 475.122 138.017C476.079 133.731 477.365 129.527 478.97 125.44C480.544 121.938 482.353 118.546 484.385 115.289C486.628 111.19 489.285 107.332 492.315 103.775C493.79 102.406 495.031 100.805 495.99 99.0362C497.107 96.4874 496.676 93.5642 496.903 90.7889C497.076 88.7037 497.629 86.6679 498.536 84.782V84.7789C499.02 83.763 499.604 82.7976 500.279 81.8965C500.584 82.6077 500.889 83.3178 501.195 84.0268C501.396 84.4925 501.595 84.9572 501.792 85.4208C502.05 86.0187 502.306 86.6144 502.56 87.2081C503.293 88.9136 504.026 90.618 504.757 92.3214C505.547 94.4668 506.672 96.4731 508.092 98.2654C508.741 99.1831 509.617 99.9169 510.634 100.395C511.651 100.873 512.775 101.079 513.895 100.993C515.016 100.907 516.095 100.532 517.028 99.9048C517.96 99.2772 518.714 98.4185 519.215 97.4126C520.273 95.5349 521.039 93.5074 521.487 91.3994C522.109 88.8327 522.194 86.1656 521.739 83.5643C520.981 78.5549 518.85 73.4385 517.302 68.7846C516.672 67.2329 516.307 65.5863 516.223 63.9136C516.226 63.7256 516.245 63.5383 516.279 63.3535C516.289 63.3063 516.298 63.2559 516.308 63.2088C516.953 62.905 517.624 62.6597 518.312 62.4756C518.702 62.3717 519.096 62.2868 519.492 62.2207C520.855 69.5964 522.219 76.9721 523.586 84.3478C523.618 84.5209 523.652 84.6939 523.684 84.8701C523.879 85.9274 524.077 86.9847 524.297 88.0388C524.495 88.9954 524.709 89.9488 524.949 90.8959L524.958 90.9242C525.04 91.2452 525.125 91.563 525.213 91.8808L525.216 91.8903C525.458 92.7587 525.729 93.6209 526.034 94.4705C527.884 99.59 531.11 104.744 529.923 110.059Z" fill="#FB0932"/>
<path d="M605.267 188.992C605.209 190.074 605.419 191.153 605.877 192.135C607.039 194.259 609.827 194.741 612.24 194.94C626.332 196.098 640.51 195.666 654.505 193.652C655.265 193.6 656.001 193.372 656.657 192.984C658.647 191.589 657.42 188.189 655.247 187.101C653.074 186.012 650.496 186.275 648.112 185.803C645.743 185.207 643.488 184.229 641.434 182.907C636.599 180.129 631.835 177.233 627.141 174.219C624.346 172.425 621.048 170.509 617.901 171.573C609.376 174.457 605.211 179.795 605.267 188.992Z" fill="#3F3D56"/>
<path d="M501.383 82.9901V82.9932C501.361 83.1254 501.339 83.2544 501.311 83.3834C501.276 83.5974 501.235 83.8145 501.194 84.0284C500.804 86.0266 500.326 88.0152 499.775 89.9913C498.265 95.4507 496.242 100.822 494.234 106.115C488.847 120.306 483.459 134.498 478.07 148.692C476.71 152.266 475.354 155.844 473.809 159.346C473.293 160.514 472.761 161.69 472.233 162.88C470.338 167.137 468.52 171.533 467.916 176.064C467.352 179.046 467.287 182.101 467.724 185.104C468.328 188.075 470.131 190.976 472.953 192.074C474.332 192.612 476.304 193.333 475.927 194.765C475.722 195.551 474.829 195.935 474.026 196.067C472.967 196.236 471.883 196.17 470.852 195.873C469.821 195.576 468.868 195.056 468.06 194.349C466.553 193.012 465.395 190.932 463.391 190.709C462.003 190.558 460.726 191.388 459.454 191.97C454.269 194.34 448.227 192.682 442.78 190.998C443.208 188.792 445.423 187.339 447.623 186.898C449.822 186.454 452.097 186.769 454.341 186.709C455.059 186.748 455.772 186.564 456.383 186.184C456.931 185.681 457.314 185.026 457.484 184.302C458.93 180.02 460.004 175.622 460.697 171.155C461.421 166.489 461.723 161.75 462.755 157.14C463.557 153.544 464.797 150.06 465.861 146.53C467.917 139.261 469.606 131.892 470.921 124.453C471.585 121.362 472.061 118.234 472.346 115.086C472.525 112.474 472.44 109.85 472.692 107.247C473.115 103.862 473.821 100.518 474.803 97.2506C475.766 93.6855 476.728 90.1224 477.689 86.5615C479.114 81.2909 480.644 75.8158 484.256 71.7188C485.511 70.2766 487.048 69.1073 488.773 68.2835C490.498 67.4597 492.374 66.9989 494.284 66.9297C495.001 66.9288 495.715 67.0058 496.415 67.1594C496.531 67.1877 496.647 67.216 496.764 67.2475C497.526 67.4468 498.258 67.7496 498.938 68.1474C500.052 67.4394 500.618 67.688 501.358 68.7799C502.006 69.9355 502.312 71.2518 502.239 72.5747C502.301 76.0664 502.015 79.5555 501.383 82.9901Z" fill="#FBBEBE"/>
<path d="M502.607 87.1608L502.56 87.208L502.305 87.4629L499.775 89.9896L498.535 84.782L494.284 66.9279C495 66.9271 495.715 67.0041 496.414 67.1576C496.445 66.9531 496.494 66.7519 496.562 66.5566L496.764 67.2457L498.205 72.1482L500.933 81.4559L501.383 82.9883V82.9915L502.607 87.1608Z" fill="#FB0932"/>
<path d="M518.661 30.2032C518.659 31.8564 518.331 33.493 517.696 35.0194C517.062 36.5458 516.132 37.9321 514.961 39.099C514.537 39.5238 514.082 39.9169 513.601 40.2754C511.43 41.9123 508.785 42.7982 506.065 42.7995H490.969C487.633 42.7944 484.436 41.4656 482.079 39.1051C479.722 36.7445 478.398 33.5451 478.398 30.2093C478.398 26.8736 479.722 23.6741 482.079 21.3136C484.436 18.953 487.633 17.6243 490.969 17.6191H506.065C509.401 17.6278 512.598 18.956 514.958 21.3138C517.318 23.6715 518.65 26.8672 518.661 30.2032Z" fill="#2F2E41"/>
<path d="M532.815 31.152C539.94 31.152 545.716 25.3759 545.716 18.2508C545.716 11.1257 539.94 5.34961 532.815 5.34961C525.69 5.34961 519.914 11.1257 519.914 18.2508C519.914 25.3759 525.69 31.152 532.815 31.152Z" fill="#2F2E41"/>
<path opacity="0.1" d="M532.5 5.34961C532.342 5.34961 532.185 5.35589 532.028 5.36154C535.366 5.48287 538.526 6.89395 540.844 9.2979C543.162 11.7018 544.457 14.9112 544.457 18.2508C544.457 21.5904 543.162 24.7997 540.844 27.2037C538.526 29.6076 535.366 31.0187 532.028 31.14C532.185 31.1457 532.342 31.152 532.5 31.152C535.922 31.152 539.203 29.7927 541.623 27.3733C544.042 24.9539 545.401 21.6724 545.401 18.2508C545.401 14.8292 544.042 11.5477 541.623 9.12828C539.203 6.70884 535.922 5.34961 532.5 5.34961Z" fill="black"/>
<path opacity="0.1" d="M471.141 5.34961C471.299 5.34961 471.456 5.35589 471.613 5.36154C468.275 5.48287 465.115 6.89395 462.797 9.2979C460.479 11.7018 459.184 14.9112 459.184 18.2508C459.184 21.5904 460.479 24.7997 462.797 27.2037C465.115 29.6076 468.275 31.0187 471.613 31.14C471.456 31.1457 471.299 31.152 471.141 31.152C467.721 31.149 464.443 29.7884 462.026 27.3693C459.609 24.9502 458.251 21.6704 458.251 18.2508C458.251 14.8312 459.609 11.5514 462.026 9.13229C464.443 6.71318 467.721 5.35262 471.141 5.34961Z" fill="black"/>
<path opacity="0.1" d="M513.601 40.2754C511.43 41.9123 508.785 42.7983 506.065 42.7995H490.969C488.25 42.7983 485.605 41.9123 483.434 40.2754H513.601Z" fill="black"/>
<path d="M611.086 133.756C611.086 133.756 614.338 143.128 617.315 140.633L614.942 128.383L611.086 133.756Z" fill="#FBBEBE"/>
<path d="M1006.86 419.55C1009.89 420.652 1013.14 421.034 1016.34 420.668C1019.54 420.302 1022.62 419.197 1025.32 417.44C1028.02 415.683 1030.28 413.323 1031.91 410.545C1033.55 407.767 1034.51 404.647 1034.74 401.432C1034.96 398.216 1034.43 394.993 1033.2 392.016C1031.96 389.039 1030.05 386.389 1027.62 384.276C1025.19 382.162 1022.3 380.643 1019.17 379.838C1016.05 379.032 1012.79 378.963 1009.64 379.635L1010.16 390.347L1005.09 381.167C1000.11 383.504 996.271 387.72 994.405 392.889C993.742 394.7 993.338 396.596 993.207 398.519C992.887 403.033 994.048 407.528 996.512 411.323C998.976 415.118 1002.61 418.006 1006.86 419.55Z" fill="#FB0932"/>
<path d="M1031.94 543.793C1030.15 534.682 1037.9 526.606 1045.56 521.356C1053.22 516.106 1062.17 510.948 1064.78 502.039C1068.53 489.235 1057.35 477.509 1048.64 467.398C1042.19 459.893 1036.64 451.65 1032.12 442.84C1030.31 439.308 1028.65 435.615 1028.17 431.674C1027.48 425.998 1029.31 420.351 1031.14 414.937C1037.26 396.903 1043.8 379.019 1050.77 361.287" stroke="#3F3D56" stroke-miterlimit="10"/>
<path d="M1007.72 416.793C1010.75 417.894 1013.99 418.276 1017.2 417.91C1020.4 417.544 1023.47 416.439 1026.17 414.682C1028.88 412.926 1031.13 410.565 1032.77 407.787C1034.4 405.009 1035.37 401.89 1035.59 398.674C1035.82 395.459 1035.29 392.235 1034.06 389.258C1032.82 386.281 1030.91 383.631 1028.48 381.518C1026.04 379.404 1023.15 377.885 1020.03 377.08C1016.91 376.275 1013.65 376.205 1010.49 376.877L1011.01 387.589L1005.95 378.409C1000.97 380.746 997.129 384.963 995.262 390.132C994.599 391.942 994.196 393.838 994.065 395.762C993.745 400.275 994.905 404.77 997.369 408.565C999.834 412.36 1003.47 415.249 1007.72 416.793Z" stroke="#3F3D56" stroke-miterlimit="10"/>
<path d="M1029.4 357.588C1030.59 354.308 1032.58 351.38 1035.2 349.074C1037.82 346.767 1040.97 345.157 1044.38 344.391L1046.09 354.575L1049.27 343.879C1053.68 343.944 1057.96 345.41 1061.48 348.064C1065 350.718 1067.59 354.424 1068.87 358.645C1070.15 362.867 1070.06 367.386 1068.6 371.551C1067.15 375.716 1064.41 379.31 1060.78 381.815C1057.15 384.321 1052.81 385.607 1048.4 385.489C1043.99 385.371 1039.73 383.855 1036.24 381.159C1032.75 378.463 1030.21 374.727 1028.98 370.49C1027.74 366.253 1027.89 361.735 1029.4 357.588Z" fill="#FB0932"/>
<path d="M1030.54 353.911C1031.73 350.631 1033.72 347.702 1036.34 345.396C1038.96 343.09 1042.12 341.479 1045.52 340.713L1047.23 350.897L1050.41 340.201C1054.82 340.267 1059.1 341.732 1062.62 344.386C1066.15 347.04 1068.73 350.746 1070.02 354.967C1071.3 359.189 1071.2 363.708 1069.75 367.873C1068.29 372.038 1065.55 375.632 1061.92 378.138C1058.29 380.643 1053.96 381.93 1049.55 381.811C1045.14 381.693 1040.88 380.177 1037.38 377.481C1033.89 374.785 1031.35 371.049 1030.12 366.812C1028.89 362.576 1029.04 358.058 1030.54 353.911Z" stroke="#3F3D56" stroke-miterlimit="10"/>
<path d="M1044.99 467.604C1049.79 469.346 1055.07 469.26 1059.82 467.362C1064.56 465.464 1068.44 461.886 1070.72 457.31C1072.99 452.735 1073.51 447.482 1072.16 442.552C1070.81 437.623 1067.7 433.362 1063.41 430.581L1060.97 438.8L1059.24 428.496C1059.22 428.488 1059.2 428.482 1059.18 428.476C1056.61 427.542 1053.89 427.124 1051.16 427.245C1048.42 427.366 1045.74 428.024 1043.27 429.181C1040.79 430.339 1038.56 431.973 1036.72 433.99C1034.87 436.008 1033.44 438.369 1032.51 440.939C1031.58 443.509 1031.16 446.238 1031.29 448.969C1031.41 451.7 1032.07 454.38 1033.23 456.857C1034.39 459.333 1036.02 461.557 1038.04 463.401C1040.06 465.245 1042.42 466.673 1044.99 467.604Z" fill="#FB0932"/>
<path d="M1045.98 463.879C1050.79 465.622 1056.06 465.536 1060.81 463.637C1065.55 461.739 1069.43 458.161 1071.71 453.586C1073.98 449.01 1074.5 443.757 1073.15 438.828C1071.8 433.898 1068.69 429.637 1064.4 426.856L1061.96 435.076L1060.23 424.772C1060.21 424.764 1060.19 424.757 1060.17 424.752C1057.61 423.818 1054.88 423.399 1052.15 423.52C1049.41 423.641 1046.73 424.299 1044.26 425.457C1041.78 426.614 1039.55 428.248 1037.71 430.265C1035.86 432.283 1034.43 434.644 1033.5 437.214C1032.57 439.784 1032.15 442.513 1032.28 445.244C1032.4 447.976 1033.06 450.656 1034.22 453.132C1035.38 455.608 1037.01 457.832 1039.03 459.676C1041.05 461.52 1043.41 462.948 1045.98 463.879Z" stroke="#3F3D56" stroke-miterlimit="10"/>
<path d="M1023.32 502.167C1024.15 506.868 1026.57 511.141 1030.17 514.271C1033.77 517.4 1038.34 519.196 1043.11 519.357C1047.88 519.517 1052.56 518.033 1056.37 515.153C1060.17 512.273 1062.87 508.172 1064.01 503.538C1065.15 498.904 1064.66 494.019 1062.63 489.701C1060.59 485.384 1057.14 481.898 1052.84 479.827C1048.54 477.756 1043.66 477.226 1039.01 478.326C1034.37 479.426 1030.25 482.09 1027.33 485.87L1036.61 499.827L1023.94 492.419C1022.95 495.572 1022.74 498.916 1023.32 502.167Z" fill="#FB0932"/>
<path d="M1024.18 499.41C1025.01 504.11 1027.42 508.383 1031.03 511.513C1034.63 514.642 1039.2 516.438 1043.97 516.599C1048.74 516.759 1053.42 515.275 1057.22 512.395C1061.03 509.515 1063.73 505.414 1064.87 500.78C1066.01 496.146 1065.52 491.261 1063.49 486.944C1061.45 482.627 1058 479.14 1053.7 477.069C1049.4 474.998 1044.52 474.468 1039.87 475.568C1035.23 476.669 1031.1 479.332 1028.19 483.112L1037.46 497.069L1024.79 489.661C1023.81 492.815 1023.6 496.158 1024.18 499.41Z" stroke="#3F3D56" stroke-miterlimit="10"/>
<path d="M9.0077 470.248C10.998 470.972 13.1291 471.223 15.2332 470.983C17.3372 470.742 19.3566 470.016 21.1322 468.862C22.9078 467.708 24.391 466.157 25.465 464.332C26.539 462.506 27.1744 460.457 27.3211 458.344C27.4678 456.231 27.1218 454.114 26.3104 452.157C25.4989 450.201 24.2443 448.46 22.6452 447.072C21.0462 445.683 19.1465 444.685 17.0959 444.156C15.0453 443.627 12.8999 443.582 10.8287 444.023L11.171 451.061L7.8411 445.03C4.57302 446.565 2.04829 449.335 0.821738 452.732C0.386136 453.921 0.121322 455.167 0.0351972 456.43C-0.174986 459.396 0.587223 462.349 2.20632 464.843C3.82541 467.336 6.21315 469.234 9.0077 470.248Z" fill="#FB0932"/>
<path d="M25.4842 551.878C24.3088 545.893 29.4022 540.586 34.4334 537.137C39.4645 533.688 45.3432 530.299 47.0598 524.445C49.5269 516.033 42.1781 508.329 36.4584 501.685C32.2149 496.755 28.5707 491.339 25.6021 485.551C24.3115 483.277 23.4324 480.793 23.0054 478.214C22.5544 474.485 23.7524 470.775 24.9593 467.218C28.9799 455.369 33.2787 443.619 37.8555 431.969" stroke="#3F3D56" stroke-miterlimit="10"/>
<path d="M9.57021 468.438C11.5605 469.161 13.6917 469.413 15.7957 469.172C17.8997 468.931 19.9191 468.205 21.6947 467.051C23.4703 465.897 24.9535 464.346 26.0275 462.521C27.1015 460.696 27.7369 458.646 27.8836 456.534C28.0303 454.421 27.6843 452.303 26.8728 450.347C26.0614 448.391 24.8067 446.65 23.2077 445.261C21.6087 443.873 19.709 442.875 17.6584 442.346C15.6078 441.817 13.4624 441.771 11.3912 442.213L11.7335 449.251L8.4036 443.219C5.13552 444.755 2.61079 447.525 1.38424 450.921C0.948641 452.111 0.683831 453.356 0.597701 454.62C0.387505 457.585 1.14971 460.539 2.76881 463.032C4.3879 465.526 6.77565 467.423 9.57021 468.438Z" stroke="#3F3D56" stroke-miterlimit="10"/>
<path d="M23.8121 429.539C24.5932 427.384 25.9041 425.46 27.6241 423.944C29.3441 422.429 31.4179 421.371 33.6542 420.868L34.7801 427.559L36.8675 420.531C39.7656 420.574 42.5752 421.537 44.8905 423.281C47.2057 425.025 48.9069 427.459 49.7484 430.233C50.5898 433.007 50.5281 435.976 49.572 438.712C48.6159 441.448 46.815 443.81 44.4292 445.456C42.0435 447.102 39.1963 447.947 36.2989 447.87C33.4014 447.792 30.6035 446.796 28.3092 445.025C26.015 443.253 24.343 440.799 23.5346 438.015C22.7263 435.232 22.8235 432.263 23.8121 429.539Z" fill="#FB0932"/>
<path d="M24.5631 427.123C25.3442 424.967 26.6551 423.044 28.3751 421.528C30.0951 420.013 32.1688 418.955 34.4052 418.452L35.5311 425.142L37.6184 418.115C40.5166 418.158 43.3262 419.121 45.6414 420.865C47.9567 422.609 49.6579 425.043 50.4993 427.817C51.3408 430.591 51.2791 433.56 50.323 436.296C49.3669 439.032 47.566 441.394 45.1802 443.04C42.7944 444.686 39.9473 445.531 37.0498 445.454C34.1524 445.376 31.3545 444.38 29.0602 442.609C26.7659 440.837 25.0939 438.383 24.2856 435.599C23.4773 432.816 23.5745 429.847 24.5631 427.123Z" stroke="#3F3D56" stroke-miterlimit="10"/>
<path d="M34.0576 501.822C37.214 502.967 40.6813 502.91 43.7987 501.663C46.9162 500.416 49.4656 498.065 50.9612 495.059C52.4568 492.052 52.7939 488.601 51.9083 485.362C51.0227 482.124 48.9763 479.324 46.1592 477.497L44.5553 482.897L43.418 476.127C43.4067 476.122 43.3951 476.118 43.3832 476.114C41.6948 475.5 39.9021 475.225 38.1073 475.304C36.3126 475.384 34.551 475.816 32.9234 476.576C31.2957 477.336 29.8338 478.41 28.6213 479.736C27.4088 481.061 26.4693 482.613 25.8567 484.302C25.2441 485.99 24.9703 487.783 25.0509 489.578C25.1315 491.373 25.565 493.134 26.3266 494.761C27.0882 496.388 28.163 497.849 29.4895 499.061C30.816 500.272 32.3683 501.21 34.0576 501.822Z" fill="#FB0932"/>
<path d="M34.7078 499.375C37.8642 500.52 41.3315 500.463 44.4489 499.216C47.5663 497.969 50.1158 495.618 51.6114 492.612C53.107 489.606 53.4441 486.154 52.5585 482.915C51.6729 479.677 49.6265 476.877 46.8094 475.05L45.2055 480.45L44.0682 473.68C44.0569 473.675 44.0453 473.671 44.0334 473.667C42.3454 473.055 40.5533 472.781 38.7595 472.861C36.9657 472.942 35.2053 473.374 33.5787 474.135C30.2938 475.671 27.7535 478.449 26.5169 481.858C25.2802 485.267 25.4484 489.028 26.9845 492.313C28.5206 495.598 31.2988 498.138 34.7078 499.375Z" stroke="#3F3D56" stroke-miterlimit="10"/>
<path d="M19.8224 524.531C20.3651 527.619 21.9531 530.426 24.3202 532.482C26.6872 534.539 29.6893 535.718 32.823 535.824C35.9566 535.93 39.0313 534.954 41.5313 533.062C44.0313 531.17 45.8046 528.475 46.5538 525.431C47.3031 522.386 46.9826 519.176 45.6463 516.34C44.31 513.504 42.039 511.213 39.2142 509.852C36.3895 508.491 33.1827 508.143 30.1318 508.866C27.0808 509.589 24.3712 511.339 22.4574 513.823L28.5497 522.993L20.2253 518.126C19.5799 520.197 19.4417 522.394 19.8224 524.531Z" fill="#FB0932"/>
<path d="M20.3849 522.718C20.9276 525.806 22.5156 528.614 24.8827 530.67C27.2497 532.726 30.2518 533.906 33.3855 534.012C36.5191 534.117 39.5938 533.142 42.0938 531.25C44.5938 529.357 46.3671 526.663 47.1163 523.618C47.8656 520.574 47.5451 517.364 46.2088 514.528C44.8725 511.691 42.6015 509.4 39.7767 508.04C36.952 506.679 33.7452 506.331 30.6943 507.054C27.6433 507.777 24.9337 509.527 23.0199 512.01L29.1122 521.18L20.7878 516.313C20.1424 518.385 20.0042 520.582 20.3849 522.718Z" stroke="#3F3D56" stroke-miterlimit="10"/>
<path d="M480.946 341.115C490.335 341.115 497.946 331.265 497.946 319.115C497.946 306.965 490.335 297.115 480.946 297.115C471.557 297.115 463.946 306.965 463.946 319.115C463.946 331.265 471.557 341.115 480.946 341.115Z" fill="#2F2E41"/>
<path d="M573.446 341.615C582.835 341.615 590.446 331.765 590.446 319.615C590.446 307.465 582.835 297.615 573.446 297.615C564.057 297.615 556.446 307.465 556.446 319.615C556.446 331.765 564.057 341.615 573.446 341.615Z" fill="#2F2E41"/>
<path d="M560.446 384.615C560.446 394.555 546.566 402.615 529.446 402.615C512.326 402.615 498.446 394.555 498.446 384.615C498.446 376.005 508.856 368.805 522.766 367.045C524.981 366.753 527.213 366.61 529.446 366.615C533.189 366.603 536.922 367.006 540.576 367.816C552.196 370.406 560.446 376.955 560.446 384.615Z" fill="#2F2E41"/>
<path d="M484.946 336.115C494.335 336.115 501.946 326.265 501.946 314.115C501.946 301.965 494.335 292.115 484.946 292.115C475.557 292.115 467.946 301.965 467.946 314.115C467.946 326.265 475.557 336.115 484.946 336.115Z" stroke="#3F3D56" stroke-miterlimit="10"/>
<path d="M577.446 336.615C586.835 336.615 594.446 326.765 594.446 314.615C594.446 302.465 586.835 292.615 577.446 292.615C568.057 292.615 560.446 302.465 560.446 314.615C560.446 326.765 568.057 336.615 577.446 336.615Z" stroke="#3F3D56" stroke-miterlimit="10"/>
<path d="M533.446 397.615C550.567 397.615 564.446 389.556 564.446 379.615C564.446 369.674 550.567 361.615 533.446 361.615C516.325 361.615 502.446 369.674 502.446 379.615C502.446 389.556 516.325 397.615 533.446 397.615Z" stroke="#3F3D56" stroke-miterlimit="10"/>
<path d="M540.946 369.316C540.954 370.573 540.482 371.786 539.626 372.707C539.222 373.149 538.731 373.502 538.184 373.744C537.636 373.986 537.045 374.113 536.446 374.115H526.446C525.214 374.073 524.049 373.544 523.206 372.644C522.363 371.745 521.91 370.548 521.946 369.316C521.941 368.341 522.227 367.386 522.766 366.574C524.979 366.263 527.212 366.109 529.446 366.115C533.194 366.103 536.93 366.533 540.576 367.396C540.823 368.005 540.949 368.658 540.946 369.316Z" fill="white"/>
<path d="M484.946 313.115C487.708 313.115 489.946 310.877 489.946 308.115C489.946 305.354 487.708 303.115 484.946 303.115C482.185 303.115 479.946 305.354 479.946 308.115C479.946 310.877 482.185 313.115 484.946 313.115Z" fill="white"/>
<path d="M577.946 313.115C580.708 313.115 582.946 310.877 582.946 308.115C582.946 305.354 580.708 303.115 577.946 303.115C575.185 303.115 572.946 305.354 572.946 308.115C572.946 310.877 575.185 313.115 577.946 313.115Z" fill="white"/>
<path opacity="0.3" d="M582.946 360.115C585.708 360.115 587.946 357.877 587.946 355.115C587.946 352.354 585.708 350.115 582.946 350.115C580.185 350.115 577.946 352.354 577.946 355.115C577.946 357.877 580.185 360.115 582.946 360.115Z" fill="#FB0932"/>
<path opacity="0.3" d="M460.946 360.115C463.708 360.115 465.946 357.877 465.946 355.115C465.946 352.354 463.708 350.115 460.946 350.115C458.185 350.115 455.946 352.354 455.946 355.115C455.946 357.877 458.185 360.115 460.946 360.115Z" fill="#FB0932"/>
</g>
<defs>
<clipPath id="clip0_855_242">
<rect width="1074.39" height="584.231" fill="white"/>
</clipPath>
</defs>
</svg>
