<svg width="420" height="300" viewBox="0 0 420 300" fill="none" xmlns="http://www.w3.org/2000/svg">
<path d="M420 263.635H0V263.836H420V263.635Z" fill="#EBEBEB"/>
<path d="M377.917 276.594H350.096V276.795H377.917V276.594Z" fill="#EBEBEB"/>
<path d="M278.223 278.783H270.924V278.985H278.223V278.783Z" fill="#EBEBEB"/>
<path d="M349.254 269.119H333.135V269.32H349.254V269.119Z" fill="#EBEBEB"/>
<path d="M80.346 270.473H44.0664V270.674H80.346V270.473Z" fill="#EBEBEB"/>
<path d="M93.1473 270.473H87.8301V270.674H93.1473V270.473Z" fill="#EBEBEB"/>
<path d="M189.125 273.871H110.434V274.072H189.125V273.871Z" fill="#EBEBEB"/>
<path d="M199.081 227.722H36.8857C35.615 227.72 34.3972 227.235 33.4995 226.373C32.6018 225.51 32.0977 224.342 32.0977 223.124V4.55766C32.1087 3.3466 32.6178 2.18863 33.5143 1.33526C34.4108 0.481903 35.6223 0.00207461 36.8857 0H199.081C200.353 0 201.573 0.484423 202.473 1.3467C203.372 2.20898 203.878 3.37848 203.878 4.59792V223.124C203.878 224.344 203.372 225.513 202.473 226.375C201.573 227.238 200.353 227.722 199.081 227.722ZM36.8857 0.161049C35.6707 0.163182 34.5063 0.627335 33.648 1.45163C32.7897 2.27592 32.3077 3.393 32.3077 4.55766V223.124C32.3077 224.289 32.7897 225.406 33.648 226.23C34.5063 227.054 35.6707 227.519 36.8857 227.521H199.081C200.297 227.519 201.462 227.055 202.322 226.231C203.182 225.407 203.665 224.29 203.668 223.124V4.55766C203.665 3.39226 203.182 2.2752 202.322 1.45114C201.462 0.627073 200.297 0.163177 199.081 0.161049H36.8857Z" fill="#EBEBEB"/>
<path d="M380.78 227.722H218.576C217.304 227.72 216.086 227.235 215.187 226.373C214.288 225.511 213.782 224.343 213.779 223.124V4.55766C213.793 3.34587 214.303 2.1879 215.201 1.33476C216.099 0.481621 217.312 0.00205199 218.576 0H380.78C382.042 0.00419087 383.251 0.484955 384.146 1.33809C385.04 2.19123 385.548 3.34799 385.559 4.55766V223.124C385.559 224.341 385.056 225.508 384.16 226.37C383.265 227.231 382.049 227.718 380.78 227.722ZM218.576 0.161049C217.36 0.163177 216.195 0.627073 215.335 1.45114C214.475 2.2752 213.992 3.39226 213.989 4.55766V223.124C213.992 224.29 214.475 225.407 215.335 226.231C216.195 227.055 217.36 227.519 218.576 227.521H380.78C381.995 227.519 383.161 227.055 384.02 226.231C384.88 225.407 385.364 224.29 385.366 223.124V4.55766C385.364 3.39226 384.88 2.2752 384.02 1.45114C383.161 0.627073 381.995 0.163177 380.78 0.161049H218.576Z" fill="#EBEBEB"/>
<path d="M243.341 95.8711L359.076 95.8711V23.2142L243.341 23.2142V95.8711Z" fill="#E6E6E6"/>
<path d="M239.803 95.8711L357.42 95.8711V23.2142L239.803 23.2142V95.8711Z" fill="#F0F0F0"/>
<path d="M243.341 110.125L359.076 110.125V95.8642L243.341 95.8642V110.125Z" fill="#E6E6E6"/>
<path d="M233.932 110.125L351.549 110.125V95.8642L233.932 95.8642V110.125Z" fill="#F0F0F0"/>
<path d="M352.48 91.1362V27.957L244.75 27.957V91.1362H352.48Z" fill="#FAFAFA"/>
<path d="M328.189 91.1282L314.429 27.957H292.959L306.718 91.1282H328.189Z" fill="white"/>
<path d="M350.197 86.4178C350.244 86.4178 350.29 86.4088 350.334 86.3913C350.377 86.3738 350.416 86.3482 350.449 86.3159C350.482 86.2837 350.508 86.2454 350.525 86.2035C350.542 86.1615 350.551 86.1167 350.549 86.0716V31.0414C350.549 30.9517 350.512 30.8657 350.446 30.8023C350.38 30.7389 350.29 30.7032 350.197 30.7032C350.15 30.7021 350.104 30.7101 350.06 30.7267C350.017 30.7433 349.978 30.7682 349.945 30.7998C349.912 30.8315 349.886 30.8692 349.868 30.9107C349.851 30.9522 349.843 30.9967 349.844 31.0414V86.0716C349.843 86.1167 349.851 86.1615 349.868 86.2035C349.885 86.2454 349.911 86.2837 349.944 86.3159C349.977 86.3482 350.016 86.3738 350.06 86.3913C350.103 86.4088 350.15 86.4178 350.197 86.4178Z" fill="#F0F0F0"/>
<path d="M302.107 91.1282L288.347 27.957H279.973L293.74 91.1282H302.107Z" fill="white"/>
<path d="M245.381 91.1362V27.957H244.751V91.1362H245.381Z" fill="#E6E6E6"/>
<path opacity="0.6" d="M238.643 35.0995H354.378L354.831 29.793H239.096L238.643 35.0995Z" fill="#EBEBEB"/>
<path opacity="0.6" d="M238.643 43.7965H354.378L354.831 38.498H239.096L238.643 43.7965Z" fill="#EBEBEB"/>
<path opacity="0.6" d="M238.643 52.4938H354.378L354.831 47.1953H239.096L238.643 52.4938Z" fill="#EBEBEB"/>
<path opacity="0.6" d="M238.643 61.1972H354.378L354.831 55.8906H239.096L238.643 61.1972Z" fill="#EBEBEB"/>
<path opacity="0.6" d="M238.643 69.8944H354.378L354.831 64.5879H239.096L238.643 69.8944Z" fill="#EBEBEB"/>
<path opacity="0.6" d="M238.643 78.5917H354.378L354.831 73.2852H239.096L238.643 78.5917Z" fill="#EBEBEB"/>
<path d="M342.459 210.795H318.191V215.385H342.459V210.795Z" fill="#E6E6E6"/>
<path d="M272.421 263.635H276.898V158.092H272.421V263.635Z" fill="#E6E6E6"/>
<path d="M256.897 215.387H318.184V210.797H256.897V215.387Z" fill="#F5F5F5"/>
<path d="M342.459 235.895H318.191V240.484H342.459V235.895Z" fill="#E6E6E6"/>
<path d="M256.897 240.477H318.184V235.887H256.897V240.477Z" fill="#F5F5F5"/>
<path d="M342.459 160.605H318.191V165.195H342.459V160.605Z" fill="#E6E6E6"/>
<path d="M256.897 165.186H318.184V160.596H256.897V165.186Z" fill="#F5F5F5"/>
<path d="M342.459 185.697H318.191V190.287H342.459V185.697Z" fill="#E6E6E6"/>
<path d="M256.897 190.287H318.184V185.697H256.897V190.287Z" fill="#F5F5F5"/>
<path d="M333.714 263.635H338.191V158.092H333.714V263.635Z" fill="#E6E6E6"/>
<path d="M313.706 263.635H318.184V158.092H313.706V263.635Z" fill="#F5F5F5"/>
<path d="M256.898 263.635H261.375V158.092H256.898V263.635Z" fill="#F5F5F5"/>
<path d="M54.9204 263.635H100.768L100.768 178.368H54.9204L54.9204 263.635Z" fill="#E6E6E6"/>
<path d="M67.1593 263.636H54.9121V251.863H79.9945L67.1593 263.636Z" fill="#FAFAFA"/>
<path d="M179.911 263.635H225.758V178.368H179.911V263.635Z" fill="#E6E6E6"/>
<path d="M54.9183 259.578H190.604V178.362H54.9183V259.578Z" fill="#FAFAFA"/>
<path d="M178.359 263.636H190.597V251.863H165.523L178.359 263.636Z" fill="#FAFAFA"/>
<path d="M64.4127 228.955H181.105V208.631H64.4127V228.955Z" fill="#F0F0F0"/>
<path d="M64.4127 253.619H181.105V233.295H64.4127V253.619Z" fill="#F0F0F0"/>
<path d="M158.927 210.803H86.5944C85.5741 210.803 84.5955 210.414 83.8741 209.723C83.1526 209.031 82.7472 208.093 82.7472 207.115V206.865H162.766V207.115C162.766 208.091 162.361 209.028 161.642 209.72C160.922 210.411 159.946 210.801 158.927 210.803Z" fill="#FAFAFA"/>
<path d="M64.4127 204.281H181.105V183.957H64.4127V204.281Z" fill="#F0F0F0"/>
<path d="M158.927 186.131H86.5944C85.5741 186.131 84.5955 185.742 83.8741 185.051C83.1526 184.359 82.7472 183.421 82.7472 182.443V182.193H162.766V182.443C162.766 183.42 162.361 184.356 161.642 185.048C160.922 185.739 159.946 186.129 158.927 186.131Z" fill="#FAFAFA"/>
<path d="M158.927 235.477H86.5944C85.5741 235.477 84.5955 235.088 83.8741 234.396C83.1526 233.705 82.7472 232.767 82.7472 231.789V231.539H162.766V231.789C162.766 232.765 162.361 233.702 161.642 234.394C160.922 235.085 159.946 235.474 158.927 235.477Z" fill="#FAFAFA"/>
<path d="M62.2199 95.8711L177.955 95.8711V23.2142L62.2199 23.2142L62.2199 95.8711Z" fill="#E6E6E6"/>
<path d="M58.6918 95.8711L176.309 95.8711V23.2142L58.6918 23.2142L58.6918 95.8711Z" fill="#F0F0F0"/>
<path d="M62.2199 110.125L177.955 110.125V95.8642L62.2199 95.8642V110.125Z" fill="#E6E6E6"/>
<path d="M52.8031 110.125L170.42 110.125V95.8642L52.8031 95.8642V110.125Z" fill="#F0F0F0"/>
<path d="M171.359 91.1362V27.957L63.6294 27.957V91.1362H171.359Z" fill="#FAFAFA"/>
<path d="M147.067 91.1282L133.308 27.957H111.838L125.597 91.1282H147.067Z" fill="white"/>
<path d="M169.066 86.4178C169.113 86.4178 169.159 86.4088 169.203 86.3913C169.246 86.3738 169.285 86.3482 169.318 86.3159C169.351 86.2837 169.377 86.2454 169.394 86.2035C169.411 86.1615 169.42 86.1167 169.419 86.0716V31.0414C169.42 30.9967 169.411 30.9522 169.394 30.9107C169.377 30.8692 169.351 30.8315 169.318 30.7998C169.285 30.7682 169.245 30.7433 169.202 30.7267C169.159 30.7101 169.112 30.7021 169.066 30.7032C168.972 30.7032 168.882 30.7389 168.816 30.8023C168.75 30.8657 168.713 30.9517 168.713 31.0414V86.0716C168.712 86.1167 168.72 86.1615 168.737 86.2035C168.755 86.2454 168.78 86.2837 168.813 86.3159C168.846 86.3482 168.885 86.3738 168.929 86.3913C168.972 86.4088 169.019 86.4178 169.066 86.4178Z" fill="#F0F0F0"/>
<path d="M120.986 91.1282L107.226 27.957H98.8516L112.611 91.1282H120.986Z" fill="white"/>
<path d="M64.2598 91.1362V27.957H63.6298L63.6298 91.1362H64.2598Z" fill="#E6E6E6"/>
<path opacity="0.6" d="M57.5137 35.0995H173.249L173.702 29.793H57.9673L57.5137 35.0995Z" fill="#EBEBEB"/>
<path opacity="0.6" d="M57.5137 38.0956H173.249L173.702 32.7891H57.9673L57.5137 38.0956Z" fill="#EBEBEB"/>
<path opacity="0.6" d="M57.5137 41.0836H173.249L173.702 35.7852H57.9673L57.5137 41.0836Z" fill="#EBEBEB"/>
<path opacity="0.6" d="M57.5137 44.078H173.249L173.702 38.7715H57.9673L57.5137 44.078Z" fill="#EBEBEB"/>
<path opacity="0.6" d="M57.5137 47.0661H173.249L173.702 41.7676H57.9673L57.5137 47.0661Z" fill="#EBEBEB"/>
<path opacity="0.6" d="M57.5137 50.0624H173.249L173.702 44.7559H57.9673L57.5137 50.0624Z" fill="#EBEBEB"/>
<path d="M80.6559 175.76H84.6543V133.01H80.6559V175.76Z" fill="#F5F5F5"/>
<path d="M81.1609 175.736H82.2949V132.986H81.1609V175.736Z" fill="#FAFAFA"/>
<path d="M82.7657 175.736H83.2109V132.986H82.7657V175.736Z" fill="#FAFAFA"/>
<path d="M97.4648 178.367H67.8632C67.8632 177.419 68.2562 176.51 68.9556 175.839C69.6551 175.169 70.6037 174.792 71.5928 174.792H93.7268C94.716 174.792 95.6646 175.169 96.3641 175.839C97.0635 176.51 97.4564 177.419 97.4564 178.367H97.4648Z" fill="#F0F0F0"/>
<path d="M75.4658 159.55C75.7704 159.548 76.0618 159.431 76.2771 159.225C76.4925 159.018 76.6144 158.739 76.6166 158.447V130.449C76.6166 130.156 76.4954 129.876 76.2796 129.669C76.0638 129.462 75.771 129.346 75.4658 129.346C75.314 129.345 75.1635 129.372 75.0229 129.427C74.8823 129.482 74.7544 129.563 74.6467 129.666C74.5389 129.769 74.4534 129.891 74.395 130.025C74.3367 130.159 74.3066 130.303 74.3066 130.449V158.479C74.3175 158.767 74.4444 159.039 74.6607 159.239C74.8769 159.439 75.1655 159.55 75.4658 159.55Z" fill="#F0F0F0"/>
<path d="M64.7383 143.172H100.564L96.4399 119.176H68.8627L64.7383 143.172Z" fill="#E0E0E0"/>
<path d="M213.611 300C302.014 300 373.678 295.919 373.678 290.885C373.678 285.851 302.014 281.77 213.611 281.77C125.209 281.77 53.5449 285.851 53.5449 290.885C53.5449 295.919 125.209 300 213.611 300Z" fill="#F5F5F5"/>
<path d="M93.1769 118.657L92.3535 118.715L93.4502 133.565L94.2736 133.507L93.1769 118.657Z" fill="#FB0932"/>
<path d="M94.8332 141.175L94.0098 141.232L94.4226 146.822L95.246 146.765L94.8332 141.175Z" fill="#FB0932"/>
<path d="M286.02 209.489H109.22C107.252 209.455 105.367 208.711 103.928 207.401C102.489 206.091 101.598 204.308 101.427 202.395L92.7419 84.7253C92.6611 83.8178 92.7761 82.9039 93.0794 82.0424C93.3828 81.1809 93.8678 80.3909 94.5032 79.7233C95.1386 79.0558 95.9103 78.5254 96.7686 78.1665C97.6269 77.8075 98.5528 77.6279 99.4866 77.6392H276.287C278.254 77.6735 280.138 78.4163 281.577 79.7246C283.016 81.0329 283.907 82.8141 284.08 84.7253L292.765 202.395C292.846 203.303 292.731 204.217 292.427 205.079C292.124 205.941 291.639 206.732 291.004 207.4C290.369 208.068 289.597 208.599 288.739 208.959C287.881 209.319 286.954 209.499 286.02 209.489Z" fill="#FB0932"/>
<path d="M286.694 209.489H109.894C107.926 209.455 106.04 208.711 104.601 207.401C103.162 206.091 102.272 204.308 102.101 202.395L93.4157 84.7253C93.3349 83.8178 93.4499 82.9039 93.7533 82.0424C94.0566 81.1809 94.5416 80.3909 95.177 79.7233C95.8124 79.0558 96.5841 78.5254 97.4424 78.1665C98.3008 77.8075 99.2266 77.6279 100.16 77.6392H276.961C278.928 77.6735 280.812 78.4163 282.251 79.7246C283.689 81.0329 284.581 82.8141 284.754 84.7253L293.439 202.395C293.521 203.303 293.407 204.218 293.104 205.081C292.801 205.943 292.316 206.734 291.681 207.402C291.045 208.071 290.273 208.602 289.414 208.961C288.555 209.321 287.629 209.501 286.694 209.489Z" fill="#FB0932"/>
<path opacity="0.5" d="M286.694 209.489H109.894C107.926 209.455 106.04 208.711 104.601 207.401C103.162 206.091 102.272 204.308 102.101 202.395L93.4157 84.7253C93.3349 83.8178 93.4499 82.9039 93.7533 82.0424C94.0566 81.1809 94.5416 80.3909 95.177 79.7233C95.8124 79.0558 96.5841 78.5254 97.4424 78.1665C98.3008 77.8075 99.2266 77.6279 100.16 77.6392H276.961C278.928 77.6735 280.812 78.4163 282.251 79.7246C283.689 81.0329 284.581 82.8141 284.754 84.7253L293.439 202.395C293.521 203.303 293.407 204.218 293.104 205.081C292.801 205.943 292.316 206.734 291.681 207.402C291.045 208.071 290.273 208.602 289.414 208.961C288.555 209.321 287.629 209.501 286.694 209.489Z" fill="white"/>
<path d="M277.226 81.1836H100.425H99.831C95.3153 81.546 96.2399 88.2536 100.797 88.2536H277.895C282.46 88.2536 282.394 81.546 277.82 81.1836H277.226Z" fill="#FB0932"/>
<path d="M105.034 84.7239C105.051 84.9315 105.024 85.1403 104.953 85.3369C104.882 85.5335 104.77 85.7135 104.624 85.8653C104.478 86.017 104.301 86.1372 104.104 86.218C103.907 86.2988 103.695 86.3385 103.482 86.3344C103.033 86.3282 102.602 86.1603 102.273 85.8629C101.944 85.5655 101.739 85.1598 101.698 84.7239C101.681 84.517 101.708 84.3089 101.778 84.1128C101.848 83.9168 101.96 83.7372 102.105 83.5856C102.25 83.4339 102.427 83.3136 102.622 83.2323C102.818 83.151 103.029 83.1105 103.242 83.1134C103.692 83.1176 104.125 83.2847 104.456 83.5822C104.787 83.8798 104.993 84.2867 105.034 84.7239Z" fill="#FAFAFA"/>
<path d="M110.706 84.7239C110.723 84.9315 110.695 85.1403 110.625 85.3369C110.554 85.5335 110.442 85.7135 110.296 85.8653C110.15 86.017 109.973 86.1372 109.776 86.218C109.579 86.2988 109.367 86.3385 109.153 86.3344C108.705 86.3282 108.274 86.1603 107.945 85.8629C107.616 85.5655 107.411 85.1598 107.37 84.7239C107.353 84.517 107.38 84.3089 107.45 84.1128C107.52 83.9168 107.632 83.7372 107.777 83.5856C107.922 83.4339 108.099 83.3136 108.294 83.2323C108.49 83.151 108.701 83.1105 108.914 83.1134C109.364 83.1176 109.797 83.2847 110.128 83.5822C110.459 83.8798 110.665 84.2867 110.706 84.7239Z" fill="#FAFAFA"/>
<path d="M116.366 84.7241C116.383 84.931 116.356 85.1391 116.286 85.3351C116.216 85.5312 116.105 85.7108 115.959 85.8624C115.814 86.0141 115.638 86.1344 115.442 86.2157C115.246 86.297 115.035 86.3375 114.822 86.3345C114.373 86.3302 113.941 86.1628 113.612 85.8651C113.282 85.5674 113.078 85.1606 113.039 84.7241C113.02 84.5169 113.047 84.3082 113.116 84.1116C113.186 83.915 113.297 83.7349 113.443 83.583C113.588 83.4311 113.765 83.3108 113.961 83.2299C114.158 83.149 114.37 83.1094 114.583 83.1136C115.031 83.1197 115.462 83.2877 115.791 83.5851C116.12 83.8824 116.325 84.2882 116.366 84.7241Z" fill="#FAFAFA"/>
<path d="M282.007 197.75H112.893C112.178 197.739 111.494 197.469 110.972 196.993C110.45 196.516 110.129 195.868 110.069 195.174L102.928 98.4078C102.897 98.0757 102.938 97.7409 103.049 97.4255C103.16 97.1101 103.338 96.8213 103.573 96.5784C103.807 96.3354 104.091 96.1439 104.407 96.0164C104.723 95.8889 105.063 95.8285 105.405 95.8391H274.561C275.274 95.8487 275.959 96.117 276.481 96.5918C277.003 97.0667 277.325 97.714 277.384 98.4078L284.534 195.174C284.564 195.51 284.521 195.849 284.407 196.168C284.293 196.486 284.11 196.777 283.87 197.021C283.631 197.266 283.341 197.457 283.02 197.583C282.698 197.708 282.353 197.765 282.007 197.75Z" fill="white"/>
<path d="M210.744 160.886L207.986 123.587L199.648 118.691H176.689L179.81 160.886H210.744Z" fill="white"/>
<path d="M210.746 161.271H179.813C179.71 161.273 179.611 161.236 179.536 161.169C179.46 161.101 179.415 161.008 179.408 160.908L176.296 118.714C176.292 118.661 176.299 118.607 176.318 118.558C176.336 118.508 176.366 118.462 176.403 118.424C176.44 118.384 176.484 118.352 176.534 118.33C176.584 118.308 176.638 118.296 176.692 118.295H199.651C199.723 118.297 199.794 118.317 199.857 118.351L208.195 123.247C208.251 123.279 208.299 123.323 208.333 123.376C208.368 123.429 208.389 123.49 208.393 123.553L211.134 160.852C211.14 160.906 211.133 160.961 211.115 161.013C211.096 161.064 211.066 161.111 211.027 161.15C210.991 161.188 210.948 161.218 210.899 161.238C210.851 161.259 210.799 161.27 210.746 161.271ZM180.201 160.465H210.309L207.601 123.787L199.577 119.076H177.122L180.201 160.465Z" fill="#FB0932"/>
<path d="M207.987 123.587L199.648 118.691L202.711 125.182L207.987 123.587Z" fill="#EBEBEB"/>
<path d="M202.711 125.566C202.635 125.566 202.561 125.544 202.497 125.505C202.432 125.465 202.381 125.408 202.348 125.341L199.285 118.851C199.25 118.774 199.239 118.689 199.256 118.607C199.272 118.525 199.314 118.449 199.376 118.392C199.442 118.337 199.523 118.304 199.609 118.296C199.695 118.289 199.781 118.308 199.855 118.351L208.193 123.247C208.26 123.287 208.315 123.344 208.35 123.412C208.385 123.481 208.399 123.558 208.391 123.634C208.381 123.708 208.349 123.777 208.299 123.834C208.249 123.891 208.184 123.934 208.111 123.956L202.827 125.566H202.711ZM200.557 119.672L202.926 124.705L207.054 123.473L200.557 119.672Z" fill="#FB0932"/>
<path d="M189.67 137.692C189.683 137.911 189.649 138.13 189.572 138.336C189.494 138.542 189.375 138.73 189.22 138.889C189.065 139.048 188.879 139.175 188.673 139.261C188.466 139.347 188.244 139.392 188.019 139.392C187.548 139.383 187.096 139.205 186.752 138.891C186.407 138.578 186.194 138.15 186.153 137.692C186.132 137.471 186.16 137.248 186.234 137.038C186.308 136.828 186.427 136.636 186.583 136.475C186.739 136.313 186.929 136.186 187.14 136.101C187.35 136.017 187.577 135.978 187.805 135.985C188.277 135.996 188.728 136.175 189.073 136.491C189.417 136.806 189.63 137.234 189.67 137.692Z" fill="#FB0932"/>
<path d="M200.977 137.693C200.997 137.914 200.969 138.136 200.894 138.345C200.82 138.554 200.7 138.745 200.544 138.906C200.388 139.067 200.199 139.193 199.989 139.277C199.779 139.361 199.553 139.4 199.326 139.392C198.854 139.384 198.402 139.207 198.056 138.893C197.71 138.579 197.495 138.152 197.452 137.693C197.439 137.474 197.471 137.254 197.548 137.047C197.625 136.841 197.745 136.652 197.899 136.492C198.054 136.332 198.241 136.204 198.448 136.117C198.655 136.031 198.878 135.986 199.103 135.986C199.577 135.993 200.032 136.171 200.378 136.487C200.725 136.802 200.938 137.233 200.977 137.693Z" fill="#FB0932"/>
<path d="M204.181 148.759C204.081 148.757 203.985 148.719 203.912 148.652C203.838 148.585 203.793 148.494 203.785 148.396C203.579 145.65 199.17 143.42 193.961 143.42C190.502 143.42 187.398 144.426 185.862 146.037C185.547 146.334 185.3 146.692 185.138 147.089C184.975 147.487 184.902 147.913 184.921 148.34C184.925 148.393 184.918 148.446 184.901 148.496C184.884 148.546 184.856 148.593 184.821 148.633C184.749 148.714 184.647 148.763 184.537 148.771C184.428 148.778 184.32 148.743 184.237 148.673C184.154 148.602 184.103 148.503 184.096 148.396C184.071 147.862 184.161 147.329 184.36 146.832C184.559 146.334 184.863 145.882 185.252 145.505C186.903 143.742 190.263 142.639 193.936 142.639C199.657 142.639 204.322 145.143 204.553 148.34C204.556 148.391 204.549 148.441 204.532 148.49C204.516 148.538 204.489 148.582 204.455 148.62C204.42 148.659 204.378 148.69 204.331 148.712C204.284 148.734 204.234 148.747 204.181 148.75V148.759Z" fill="#FB0932"/>
<path d="M183.206 134.248C183.105 134.246 183.009 134.208 182.934 134.143C182.859 134.069 182.816 133.969 182.816 133.865C182.816 133.761 182.859 133.661 182.934 133.587L184.692 131.743C184.767 131.672 184.868 131.633 184.973 131.633C185.077 131.633 185.178 131.672 185.253 131.743C185.29 131.779 185.32 131.822 185.34 131.869C185.36 131.916 185.37 131.966 185.37 132.017C185.37 132.068 185.36 132.118 185.34 132.165C185.32 132.212 185.29 132.255 185.253 132.291L183.495 134.135C183.457 134.172 183.412 134.201 183.362 134.22C183.313 134.239 183.26 134.249 183.206 134.248Z" fill="#FB0932"/>
<path d="M203.355 134.248C203.255 134.243 203.159 134.206 203.083 134.143L201.06 132.299C201.022 132.263 200.992 132.22 200.971 132.172C200.95 132.124 200.939 132.073 200.939 132.021C200.939 131.969 200.95 131.918 200.971 131.87C200.992 131.822 201.022 131.779 201.06 131.743C201.136 131.672 201.236 131.633 201.341 131.633C201.446 131.633 201.546 131.672 201.622 131.743L203.644 133.587C203.681 133.623 203.71 133.666 203.73 133.713C203.75 133.76 203.761 133.81 203.761 133.861C203.761 133.912 203.75 133.962 203.73 134.009C203.71 134.056 203.681 134.099 203.644 134.135C203.566 134.206 203.463 134.247 203.355 134.248Z" fill="#FB0932"/>
<path d="M174.197 169.219H176.063L178.754 172.713L178.498 169.219H180.381L180.843 175.532H178.936L176.261 172.061L176.517 175.532H174.635L174.197 169.219Z" fill="#FB0932"/>
<path d="M181.685 172.377C181.621 171.948 181.651 171.511 181.774 171.094C181.896 170.678 182.108 170.292 182.395 169.961C182.708 169.66 183.084 169.428 183.497 169.279C183.91 169.13 184.35 169.069 184.789 169.099C185.719 169.05 186.633 169.353 187.34 169.945C187.987 170.574 188.363 171.421 188.388 172.312C188.456 172.927 188.371 173.548 188.141 174.124C187.927 174.588 187.569 174.974 187.117 175.227C186.575 175.511 185.965 175.647 185.35 175.622C184.719 175.641 184.09 175.526 183.509 175.283C183 175.045 182.571 174.671 182.271 174.204C181.917 173.655 181.715 173.025 181.685 172.377ZM183.691 172.377C183.683 172.871 183.846 173.353 184.153 173.745C184.282 173.884 184.441 173.993 184.617 174.066C184.794 174.138 184.985 174.172 185.177 174.164C185.36 174.177 185.543 174.146 185.711 174.074C185.88 174.003 186.028 173.893 186.143 173.754C186.38 173.314 186.458 172.809 186.366 172.32C186.369 171.847 186.206 171.386 185.903 171.016C185.771 170.88 185.611 170.773 185.433 170.702C185.255 170.631 185.063 170.598 184.871 170.605C184.692 170.597 184.513 170.631 184.349 170.704C184.186 170.777 184.042 170.887 183.93 171.024C183.689 171.439 183.604 171.923 183.691 172.393V172.377Z" fill="#FB0932"/>
<path d="M192.268 169.219H195.24C195.729 169.203 196.218 169.283 196.676 169.452C197.039 169.6 197.361 169.829 197.617 170.12C197.877 170.416 198.076 170.758 198.203 171.127C198.337 171.524 198.42 171.935 198.451 172.351C198.514 172.877 198.472 173.411 198.327 173.921C198.213 174.275 198.012 174.596 197.741 174.855C197.515 175.089 197.23 175.261 196.915 175.355C196.531 175.463 196.135 175.523 195.735 175.532H192.771L192.268 169.219ZM194.373 170.652L194.629 174.098H195.116C195.417 174.118 195.719 174.071 195.999 173.961C196.184 173.857 196.32 173.687 196.379 173.486C196.473 173.129 196.496 172.757 196.445 172.391C196.461 171.9 196.307 171.418 196.007 171.022C195.854 170.887 195.674 170.784 195.478 170.721C195.281 170.657 195.074 170.633 194.868 170.652H194.373Z" fill="#FB0932"/>
<path d="M203.248 174.485H200.978L200.738 175.532H198.699L200.664 169.219H202.877L205.774 175.532H203.677L203.248 174.485ZM202.728 173.124L201.853 170.853L201.308 173.124H202.728Z" fill="#FB0932"/>
<path d="M204.834 169.219H210.91L211.026 170.781H208.987L209.333 175.532H207.335L206.989 170.781H204.95L204.834 169.219Z" fill="#FB0932"/>
<path d="M215.564 174.485H213.294L213.055 175.532H211.016L212.98 169.219H215.16L218.049 175.532H215.961L215.564 174.485ZM215.044 173.124L214.161 170.853L213.608 173.124H215.044Z" fill="#FB0932"/>
<path d="M299.211 95.0831C299.946 94.7207 300.862 94.2778 301.638 93.8189C302.414 93.3599 303.289 92.917 304.115 92.4338C305.725 91.4595 307.359 90.5013 308.903 89.4384C312.004 87.369 314.91 85.0354 317.588 82.465C317.926 82.159 318.223 81.8208 318.545 81.4906L319.016 80.9994L319.247 80.7578L319.363 80.629C319.247 80.8464 319.363 80.782 319.363 80.5726C319.435 80.2851 319.477 79.9909 319.487 79.6949C319.467 77.9827 319.265 76.2772 318.884 74.6058C318.149 70.9983 317.035 67.2781 315.937 63.6384L319.14 62.2695C321.161 65.7616 322.85 69.4274 324.184 73.2208C324.933 75.2708 325.41 77.4059 325.604 79.5742C325.654 80.2483 325.632 80.9257 325.538 81.5953C325.415 82.5422 325.071 83.4487 324.531 84.2445L324.39 84.4298L324.283 84.5586L324.159 84.7116L323.903 85.0176L323.391 85.6215C323.053 86.0161 322.723 86.4268 322.359 86.8052C319.536 89.861 316.387 92.6144 312.965 95.0187C311.314 96.2104 309.563 97.3539 307.772 98.3926C306.889 98.916 305.989 99.4153 305.072 99.9065C304.156 100.398 303.264 100.849 302.208 101.332L299.211 95.0831Z" fill="#FFB573"/>
<path d="M291.866 284.393C292.484 284.377 293.099 284.296 293.699 284.151C293.729 284.142 293.757 284.125 293.778 284.103C293.8 284.08 293.815 284.052 293.823 284.022C293.827 283.991 293.822 283.96 293.809 283.931C293.796 283.903 293.775 283.879 293.748 283.861C293.509 283.708 291.412 282.387 290.603 282.742C290.513 282.783 290.436 282.846 290.38 282.925C290.323 283.004 290.289 283.097 290.281 283.193C290.249 283.345 290.257 283.502 290.305 283.65C290.352 283.798 290.438 283.932 290.554 284.038C290.933 284.307 291.399 284.433 291.866 284.393ZM293.228 283.925C292.031 284.159 291.123 284.119 290.752 283.805C290.677 283.73 290.623 283.639 290.594 283.539C290.566 283.439 290.563 283.334 290.587 283.233C290.59 283.19 290.604 283.149 290.629 283.114C290.653 283.078 290.687 283.05 290.727 283.032C291.164 282.846 292.378 283.442 293.228 283.925Z" fill="#FB0932"/>
<path d="M293.688 284.152H293.771C293.795 284.137 293.815 284.117 293.83 284.093C293.844 284.069 293.852 284.042 293.854 284.015C293.854 283.926 293.854 281.985 293.094 281.341C293.003 281.256 292.893 281.192 292.773 281.154C292.653 281.116 292.525 281.106 292.401 281.124C292.27 281.125 292.144 281.169 292.044 281.25C291.943 281.331 291.874 281.442 291.847 281.567C291.691 282.372 292.945 283.781 293.606 284.152C293.633 284.159 293.661 284.159 293.688 284.152ZM292.508 281.422C292.642 281.422 292.771 281.471 292.871 281.559C293.307 282.185 293.532 282.928 293.515 283.684C292.855 283.169 292.07 282.074 292.169 281.615C292.169 281.543 292.227 281.446 292.434 281.422H292.508Z" fill="#FB0932"/>
<path d="M293.045 74.9434C292.22 78.9696 290.569 87.022 293.417 89.7195C293.417 89.7195 292.294 93.7457 284.674 93.7457C276.287 93.7457 280.67 89.7195 280.67 89.7195C285.244 88.6566 285.12 85.3471 284.328 82.2308L293.045 74.9434Z" fill="#FFB573"/>
<path d="M279.061 91.3298C277.748 91.507 278.871 88.1814 279.399 87.8351C280.637 87.0299 296.62 85.9106 296.513 87.8351C296.447 88.6403 296.051 90.2508 295.357 90.7823C294.664 91.3137 290.552 89.6549 279.061 91.3298Z" fill="#263238"/>
<path d="M281.669 90.186C280.62 90.5322 280.719 87.1824 281.074 86.7798C281.9 85.8457 294.836 82.6087 295.216 84.4366C295.365 85.2418 295.439 86.8523 294.993 87.424C294.547 87.9957 290.75 87.0536 281.669 90.186Z" fill="#263238"/>
<path d="M276.857 67.7278C276.805 67.73 276.753 67.7202 276.706 67.6992C276.659 67.6782 276.617 67.6466 276.585 67.607C276.333 67.2901 276.008 67.0354 275.636 66.8634C275.265 66.6914 274.857 66.6068 274.446 66.6166C274.403 66.6222 274.36 66.6193 274.318 66.608C274.276 66.5967 274.237 66.5774 274.203 66.5511C274.169 66.5247 274.141 66.492 274.121 66.4548C274.1 66.4177 274.087 66.3768 274.083 66.3347C274.076 66.2518 274.102 66.1694 274.156 66.1049C274.21 66.0403 274.287 65.9986 274.372 65.9885C274.892 65.9626 275.41 66.0597 275.883 66.2714C276.356 66.4831 276.769 66.8032 277.088 67.2044C277.144 67.2697 277.17 67.3537 277.162 67.4381C277.155 67.5225 277.113 67.6006 277.047 67.6553C276.991 67.6946 276.926 67.7195 276.857 67.7278Z" fill="#263238"/>
<path d="M275.257 71.666C274.882 72.9506 274.326 74.1783 273.605 75.3138C273.908 75.4836 274.245 75.5867 274.593 75.6159C274.941 75.6451 275.292 75.5997 275.62 75.4829L275.257 71.666Z" fill="#FF5652"/>
<path d="M275.659 70.6913C275.717 71.2308 275.461 71.6978 275.097 71.73C274.734 71.7622 274.396 71.3596 274.346 70.8121C274.297 70.2645 274.544 69.8055 274.899 69.7733C275.254 69.7411 275.601 70.1437 275.659 70.6913Z" fill="#263238"/>
<path d="M275.066 69.7887L273.695 69.5391C273.695 69.5391 274.48 70.4892 275.066 69.7887Z" fill="#263238"/>
<path d="M301.697 284.001H294.779L295.324 268.379H302.242L301.697 284.001Z" fill="#FFB573"/>
<path d="M294.234 283.219H302.003C302.137 283.216 302.267 283.261 302.369 283.345C302.471 283.43 302.538 283.548 302.556 283.678L303.439 289.669C303.457 289.82 303.441 289.974 303.393 290.119C303.346 290.264 303.267 290.398 303.162 290.511C303.058 290.625 302.93 290.715 302.787 290.777C302.644 290.838 302.489 290.87 302.333 290.869C299.625 290.828 298.321 290.667 294.903 290.667C292.798 290.667 289.727 290.885 286.829 290.885C283.931 290.885 283.766 288.083 284.98 287.833C290.395 286.69 291.254 285.127 293.079 283.63C293.403 283.366 293.812 283.221 294.234 283.219Z" fill="#263238"/>
<g opacity="0.2">
<path d="M302.244 268.379H295.326L295.045 276.431H301.963L302.244 268.379Z" fill="black"/>
</g>
<path d="M274.181 99.045C269.948 97.4395 265.801 95.6254 261.756 93.6096C257.579 91.6185 253.599 89.2544 249.869 86.5476C248.872 85.7861 247.929 84.9602 247.045 84.0755C246.814 83.834 246.583 83.6085 246.36 83.3267C246.098 83.0386 245.856 82.7347 245.633 82.4167C245.025 81.5516 244.644 80.553 244.527 79.5098C244.436 78.5209 244.574 77.5246 244.932 76.5948C245.218 75.8475 245.61 75.1428 246.096 74.5012C246.893 73.4375 247.835 72.4841 248.894 71.6668C250.765 70.2139 252.784 68.9537 254.921 67.9063C255.945 67.3748 256.985 66.8997 258.041 66.4569C259.098 66.014 260.138 65.5953 261.269 65.2168L262.731 68.317C259.131 70.5314 255.4 72.9713 252.659 75.693C252.046 76.2992 251.505 76.972 251.049 77.698C250.653 78.3342 250.661 78.8093 250.727 78.769C250.793 78.7287 250.727 78.769 250.843 78.8495L251.173 79.1958C251.297 79.3407 251.47 79.4857 251.627 79.6386C252.326 80.2664 253.068 80.8475 253.848 81.378C255.552 82.5549 257.327 83.6305 259.164 84.5989C261.022 85.6135 262.937 86.5718 264.885 87.4897C268.782 89.3096 272.811 91.057 276.765 92.6513L274.181 99.045Z" fill="#FFB573"/>
<path d="M264.796 66.1489L265.935 63.7332L260.717 62.002C260.717 62.002 259.066 66.7609 261.023 68.9512C261.841 68.8256 262.613 68.5038 263.272 68.0146C263.931 67.5255 264.454 66.8844 264.796 66.1489Z" fill="#FFB573"/>
<path d="M265.91 58.5077L261.757 57.332L260.717 61.9702L265.91 63.7337V58.5077Z" fill="#FFB573"/>
<path d="M319.571 63.9687L320.174 58.332L314.824 59.5882C314.824 59.5882 314.742 64.8867 317.574 65.7241L319.571 63.9687Z" fill="#FFB573"/>
<path d="M317.598 54.3613L314.105 55.9477L314.824 59.5471L320.173 58.3151L317.598 54.3613Z" fill="#FFB573"/>
<path d="M294.135 67.0345C294.391 73.726 294.639 76.5524 291.543 80.2968C286.879 85.9335 278.4 84.7659 276.105 78.2837C274.041 72.4537 273.975 62.4929 280.382 59.2075C281.79 58.4771 283.366 58.1098 284.961 58.1404C286.556 58.1711 288.117 58.5988 289.494 59.3829C290.872 60.167 292.022 61.2815 292.834 62.6206C293.646 63.9597 294.094 65.4791 294.135 67.0345Z" fill="#FFB573"/>
<path d="M291.145 80.289C297.882 77.4465 302.307 71.4314 300.441 62.1067C298.649 53.1605 292.458 52.2747 289.899 54.1268C287.339 55.9788 280.958 53.2168 277.127 56.3573C270.523 61.8087 276.764 67.6306 280.033 71.1495C281.981 75.063 284.541 83.0671 291.145 80.289Z" fill="#263238"/>
<path d="M288.348 60.5041C289.17 61.5324 290.282 62.3034 291.548 62.722C292.814 63.1406 294.178 63.1886 295.471 62.8598C296.764 62.5311 297.931 61.8401 298.826 60.8721C299.722 59.9042 300.307 58.7017 300.51 57.413C300.713 56.1244 300.524 54.806 299.968 53.6206C299.411 52.4352 298.511 51.4348 297.378 50.7427C296.245 50.0507 294.93 49.6973 293.593 49.7263C292.257 49.7552 290.959 50.1652 289.859 50.9057C288.354 51.9834 287.349 53.5999 287.066 55.3998C286.783 57.1997 287.244 59.0357 288.348 60.5041Z" fill="#FB0932"/>
<path d="M290.098 54.7554C289.132 49.3603 294.357 45.2053 301.358 47.2103C308.359 49.2154 304.66 55.2627 303.216 60.0942C301.771 64.9256 305.552 69.5316 307.121 65.8516C308.689 62.1717 306.047 61.0202 306.047 61.0202C306.047 61.0202 313.477 62.8964 306.576 71.0696C299.674 79.2428 293.425 70.2161 295.117 64.8934C296.487 60.6176 291.014 59.8526 290.098 54.7554Z" fill="#263238"/>
<path d="M283.106 56.7921C279.911 55.1816 274.503 53.853 271.424 58.9099C269.971 61.3256 270.532 64.5466 270.532 64.5466L279.935 65.1505L283.106 56.7921Z" fill="#263238"/>
<path d="M269.427 62.9542C269.371 62.9501 269.32 62.9251 269.283 62.8846C269.246 62.844 269.226 62.791 269.229 62.7368C269.229 62.5999 269.468 59.3629 271.474 57.3337C276.32 52.4217 282 56.5284 283.618 57.8571C283.653 57.893 283.673 57.9402 283.674 57.9896C283.676 58.039 283.659 58.0872 283.626 58.1251C283.593 58.1629 283.548 58.1877 283.497 58.1947C283.447 58.2017 283.396 58.1904 283.354 58.1631C281.794 56.8586 276.361 52.9531 271.796 57.6074C269.897 59.532 269.666 62.7288 269.666 62.761C269.665 62.7897 269.658 62.8179 269.645 62.8437C269.633 62.8695 269.614 62.8923 269.592 62.9106C269.569 62.9289 269.542 62.9423 269.514 62.9498C269.486 62.9573 269.456 62.9588 269.427 62.9542Z" fill="#263238"/>
<path d="M281.182 70.8603C281.145 72.1271 280.664 73.3434 279.82 74.3067C278.681 75.6112 277.343 74.967 277.071 73.5015C276.798 72.205 277.071 69.9584 278.507 69.1773C279.944 68.3962 281.198 69.3947 281.182 70.8603Z" fill="#FFB573"/>
<path d="M279.695 132.156C279.695 132.156 280.141 178.981 284.302 205.071C287.67 226.144 293.887 274.877 293.887 274.877H303.323C303.323 274.877 304.239 227.827 302.497 206.987C298.179 154.244 309.333 144.38 300.334 132.156H279.695Z" fill="#263238"/>
<path opacity="0.1" d="M279.695 132.156C279.695 132.156 280.141 178.981 284.302 205.071C287.67 226.144 293.887 274.877 293.887 274.877H303.323C303.323 274.877 304.239 227.827 302.497 206.987C298.179 154.244 309.333 144.38 300.334 132.156H279.695Z" fill="white"/>
<path opacity="0.3" d="M284.657 153.397C287.96 167.529 285.326 189.786 283.518 199.586C281.603 184.705 280.637 165.419 280.158 151.271C281.867 148.582 283.485 148.404 284.657 153.397Z" fill="black"/>
<path d="M292.599 275.053H304.611L305.238 270.946L292.533 270.527L292.599 275.053Z" fill="#FB0932"/>
<path d="M296.025 92.6022C297.156 90.4119 303.232 89.035 306.551 89.043L309.027 99.801C309.027 99.801 302.423 109.375 299.666 108.361C296.421 107.193 293.606 97.3289 296.025 92.6022Z" fill="#FB0932"/>
<path opacity="0.4" d="M296.025 92.6022C297.156 90.4119 303.232 89.035 306.551 89.043L309.027 99.801C309.027 99.801 302.423 109.375 299.666 108.361C296.421 107.193 293.606 97.3289 296.025 92.6022Z" fill="black"/>
<path d="M289.025 272.419C289.039 272.396 289.046 272.37 289.046 272.343C289.046 272.316 289.039 272.289 289.025 272.266C289.01 272.235 288.985 272.21 288.954 272.194C288.922 272.178 288.887 272.172 288.852 272.178C288.505 272.234 285.451 272.701 285.038 273.555C284.994 273.632 284.971 273.72 284.971 273.808C284.971 273.897 284.994 273.984 285.038 274.062C285.109 274.189 285.211 274.298 285.334 274.378C285.458 274.458 285.6 274.507 285.748 274.521C286.747 274.618 288.225 273.265 288.968 272.443L289.025 272.419ZM285.36 273.659C285.641 273.208 287.226 272.79 288.431 272.572C287.341 273.651 286.384 274.255 285.822 274.183C285.725 274.173 285.632 274.14 285.551 274.087C285.471 274.033 285.405 273.961 285.36 273.877C285.342 273.846 285.332 273.811 285.332 273.776C285.332 273.741 285.342 273.706 285.36 273.675C285.36 273.675 285.352 273.667 285.36 273.659Z" fill="#FB0932"/>
<path d="M289.025 272.421C289.039 272.397 289.046 272.371 289.046 272.344C289.046 272.317 289.039 272.291 289.025 272.268C288.976 272.211 287.754 270.834 286.623 270.762C286.46 270.749 286.296 270.768 286.141 270.819C285.986 270.871 285.844 270.952 285.723 271.06C285.385 271.358 285.418 271.615 285.5 271.777C285.855 272.469 288.051 272.711 288.935 272.525C288.957 272.517 288.978 272.502 288.994 272.484C289.009 272.466 289.02 272.444 289.025 272.421ZM285.798 271.406C285.834 271.351 285.878 271.303 285.93 271.261C286.016 271.181 286.119 271.12 286.231 271.083C286.344 271.045 286.463 271.032 286.582 271.044C287.35 271.228 288.04 271.642 288.555 272.227C287.572 272.308 285.987 272.018 285.773 271.599C285.759 271.568 285.754 271.533 285.758 271.499C285.763 271.466 285.776 271.433 285.798 271.406Z" fill="#FB0932"/>
<path d="M296.233 269.562L289.909 272.308L287.094 266.583L283.412 259.094L282.975 258.224L289.298 255.479L289.785 256.461L293.352 263.716L296.233 269.562Z" fill="#FFB573"/>
<path opacity="0.2" d="M293.352 263.716L287.094 266.583L283.412 259.094L289.785 256.461L293.352 263.716Z" fill="black"/>
<path d="M272.282 132.156C272.282 132.156 252.08 181.179 257.554 204.209C262.507 225.057 284.384 264.538 284.384 264.538L292.863 260.399C292.863 260.399 279.332 212.737 277.871 202.381C275.014 182.25 293.366 153.801 293.366 132.156H272.282Z" fill="#263238"/>
<path opacity="0.1" d="M272.282 132.156C272.282 132.156 252.08 181.179 257.554 204.209C262.507 225.057 284.384 264.538 284.384 264.538L292.863 260.399C292.863 260.399 279.332 212.737 277.871 202.381C275.014 182.25 293.366 153.801 293.366 132.156H272.282Z" fill="white"/>
<path d="M288.784 271.447L295.058 266.994C295.164 266.913 295.297 266.873 295.431 266.882C295.565 266.891 295.691 266.948 295.785 267.042L300.119 271.382C300.224 271.496 300.303 271.629 300.352 271.774C300.401 271.92 300.417 272.073 300.401 272.225C300.385 272.377 300.336 272.524 300.257 272.656C300.179 272.789 300.072 272.903 299.946 272.993C297.725 274.507 296.577 275.135 293.82 277.091C292.119 278.299 288.735 280.965 286.39 282.631C284.045 284.298 282.262 282.124 283.088 281.23C286.786 277.204 287.562 274.708 288.14 272.445C288.23 272.05 288.457 271.697 288.784 271.447Z" fill="#263238"/>
<path d="M283.839 266.284L294.761 261.413L293.366 257.072L281.668 262.274L283.839 266.284Z" fill="#FB0932"/>
<path d="M277.641 92.0859C276.741 89.799 268.849 87.2545 264.886 86.4492L263.145 99.1076C263.145 99.1076 269.617 108.175 272.449 107.426C275.8 106.54 279.59 96.9898 277.641 92.0859Z" fill="#FB0932"/>
<path opacity="0.4" d="M277.641 92.0859C276.741 89.799 268.849 87.2545 264.886 86.4492L263.145 99.1076C263.145 99.1076 269.617 108.175 272.449 107.426C275.8 106.54 279.59 96.9898 277.641 92.0859Z" fill="black"/>
<path d="M268.98 91.4511C268.98 91.4511 265.678 92.5784 272.282 132.156H300.351C299.88 121.011 299.864 114.135 305.304 91.2498C301.371 90.4582 297.384 89.9469 293.375 89.7198C289.132 89.4215 284.872 89.4215 280.628 89.7198C275.188 90.1868 268.98 91.4511 268.98 91.4511Z" fill="#FB0932"/>
<path opacity="0.4" d="M268.98 91.4511C268.98 91.4511 265.678 92.5784 272.282 132.156H300.351C299.88 121.011 299.864 114.135 305.304 91.2498C301.371 90.4582 297.384 89.9469 293.375 89.7198C289.132 89.4215 284.872 89.4215 280.628 89.7198C275.188 90.1868 268.98 91.4511 268.98 91.4511Z" fill="black"/>
<path d="M300.788 130.553L302.051 132.969C302.15 133.162 301.919 133.356 301.597 133.356H272.141C271.885 133.356 271.679 133.235 271.662 133.074L271.406 130.658C271.406 130.489 271.613 130.344 271.885 130.344H300.292C300.387 130.329 300.483 130.341 300.571 130.378C300.659 130.415 300.734 130.476 300.788 130.553Z" fill="#FB0932"/>
<path opacity="0.3" d="M300.788 130.553L302.051 132.969C302.15 133.162 301.919 133.356 301.597 133.356H272.141C271.885 133.356 271.679 133.235 271.662 133.074L271.406 130.658C271.406 130.489 271.613 130.344 271.885 130.344H300.292C300.387 130.329 300.483 130.341 300.571 130.378C300.659 130.415 300.734 130.476 300.788 130.553Z" fill="white"/>
<path d="M296.992 133.669H297.752C297.909 133.669 298.024 133.588 298.008 133.499L297.653 130.278C297.653 130.182 297.513 130.109 297.364 130.109H296.596C296.448 130.109 296.332 130.182 296.34 130.278L296.695 133.499C296.687 133.572 296.819 133.669 296.992 133.669Z" fill="#263238"/>
<path d="M278.506 133.669H279.266C279.414 133.669 279.53 133.588 279.522 133.499L279.167 130.278C279.167 130.182 279.026 130.109 278.869 130.109H278.11C277.953 130.109 277.846 130.182 277.854 130.278L278.209 133.499C278.217 133.572 278.349 133.669 278.506 133.669Z" fill="#263238"/>
</svg>
