<svg width="87" height="25" viewBox="0 0 87 25" fill="none" xmlns="http://www.w3.org/2000/svg">
<g clip-path="url(#clip0_3210_857)">
<g filter="url(#filter0_i_3210_857)">
<path d="M28.5854 12.3797C28.5854 19.1979 22.2217 24.7252 14.3716 24.7252C6.52155 24.7252 0.157837 19.1979 0.157837 12.3797C0.157837 5.56146 6.52155 0.0341797 14.3716 0.0341797C22.2217 0.0341797 28.5854 5.56146 28.5854 12.3797Z" fill="white"/>
<path d="M24.0448 5.72684C24.0448 6.67381 23.161 7.4415 22.0707 7.4415C20.9804 7.4415 20.0966 6.67381 20.0966 5.72684C20.0966 4.77986 20.9804 4.01221 22.0707 4.01221C23.161 4.01221 24.0448 4.77986 24.0448 5.72684Z" fill="white"/>
<path d="M24.0448 5.69245C24.0448 6.63943 23.161 7.40708 22.0707 7.40708C20.9804 7.40708 20.0966 6.63943 20.0966 5.69245C20.0966 4.74547 20.9804 3.97778 22.0707 3.97778C23.161 3.97778 24.0448 4.74547 24.0448 5.69245Z" fill="#FB0932"/>
<path fill-rule="evenodd" clip-rule="evenodd" d="M22.0707 8.43602C23.8152 8.43602 25.2293 7.20772 25.2293 5.69258C25.2293 5.61968 25.2261 5.54746 25.2197 5.47603C26.8396 7.40261 27.7957 9.77702 27.7957 12.3454C27.7957 18.7849 21.7855 24.005 14.3716 24.005C6.95767 24.005 0.94751 18.7849 0.94751 12.3454C0.94751 5.90597 6.95767 0.685791 14.3716 0.685791C17.3534 0.685791 20.1081 1.53018 22.3361 2.95868C22.2486 2.95235 22.1601 2.94913 22.0707 2.94913C20.3263 2.94913 18.9121 4.1774 18.9121 5.69258C18.9121 7.20772 20.3263 8.43602 22.0707 8.43602ZM22.0707 7.40721C23.161 7.40721 24.0449 6.63956 24.0449 5.69258C24.0449 4.7456 23.161 3.97792 22.0707 3.97792C20.9805 3.97792 20.0966 4.7456 20.0966 5.69258C20.0966 6.63956 20.9805 7.40721 22.0707 7.40721ZM14.3716 16.1176C16.7702 16.1176 18.7147 14.4288 18.7147 12.3454C18.7147 10.2621 16.7702 8.57318 14.3716 8.57318C11.973 8.57318 10.0285 10.2621 10.0285 12.3454C10.0285 14.4288 11.973 16.1176 14.3716 16.1176Z" fill="#FB0932"/>
<path fill-rule="evenodd" clip-rule="evenodd" d="M20.9014 8.96094C20.905 8.9619 20.9086 8.96289 20.9122 8.96382L20.9204 8.96602L20.9257 8.96739C20.9431 8.97196 20.9605 8.97646 20.978 8.98085C20.9527 8.97378 20.9271 8.96715 20.9014 8.96094Z" fill="white"/>
<path fill-rule="evenodd" clip-rule="evenodd" d="M16.4049 8.84751C17.4952 8.84751 18.3791 8.07982 18.3791 7.13288C18.3791 6.96993 18.3529 6.81231 18.304 6.66299C18.3009 6.65389 18.2978 6.64472 18.2948 6.63562C18.2669 6.55551 18.2324 6.4779 18.1919 6.40321C17.9646 5.98394 17.5474 5.65654 17.0366 5.50681H17.0366C16.8383 5.44864 16.6258 5.41821 16.4049 5.41821C15.3146 5.41821 14.4308 6.1859 14.4308 7.13288C14.4308 8.07982 15.3146 8.84751 16.4049 8.84751Z" fill="white"/>
<path d="M20.3729 12.3282C21.4632 12.3282 22.3471 11.5606 22.3471 10.6136C22.3471 10.4331 22.315 10.2592 22.2555 10.0958C22.0632 9.56788 21.5846 9.15044 20.9781 8.98096C20.9605 8.97657 20.9431 8.97207 20.9257 8.9675L20.9205 8.96613L20.9122 8.96393C20.9086 8.963 20.905 8.96201 20.9014 8.96105C20.7332 8.92056 20.556 8.89893 20.3729 8.89893C19.2827 8.89893 18.3988 9.66661 18.3988 10.6136C18.3988 11.5606 19.2827 12.3282 20.3729 12.3282Z" fill="white"/>
<path d="M14.3716 19.5298C18.9508 19.5298 22.6629 16.3055 22.6629 12.3282C22.6629 11.5521 22.5172 10.7965 22.2554 10.0958C22.315 10.2592 22.3471 10.4331 22.3471 10.6136C22.3471 11.5606 21.4632 12.3282 20.3729 12.3282C19.2826 12.3282 18.3988 11.5606 18.3988 10.6136C18.3988 9.66661 19.2826 8.89893 20.3729 8.89893C20.556 8.89893 20.7332 8.92056 20.9014 8.96105C19.6476 8.62379 18.6786 7.75525 18.304 6.66297C18.3529 6.81229 18.3791 6.96991 18.3791 7.13286C18.3791 8.0798 17.4952 8.84749 16.4049 8.84749C15.3146 8.84749 14.4308 8.0798 14.4308 7.13286C14.4308 6.18588 15.3146 5.41819 16.4049 5.41819C16.6258 5.41819 16.8383 5.44862 17.0366 5.50679C16.2002 5.26033 15.3039 5.12671 14.3716 5.12671C9.79238 5.12671 6.0802 8.35092 6.0802 12.3282C6.0802 16.3055 9.79238 19.5298 14.3716 19.5298Z" fill="white"/>
<path d="M18.7147 12.3455C18.7147 14.4288 16.7703 16.1177 14.3717 16.1177C11.973 16.1177 10.0286 14.4288 10.0286 12.3455C10.0286 10.2622 11.973 8.57324 14.3717 8.57324C16.7703 8.57324 18.7147 10.2622 18.7147 12.3455Z" fill="#FB0932"/>
<path d="M24.0448 5.69245C24.0448 6.63943 23.161 7.40708 22.0707 7.40708C20.9804 7.40708 20.0966 6.63943 20.0966 5.69245C20.0966 4.74547 20.9804 3.97778 22.0707 3.97778C23.161 3.97778 24.0448 4.74547 24.0448 5.69245Z" fill="#FB0932"/>
</g>
<g filter="url(#filter1_i_3210_857)">
<path d="M28.5855 12.3797C28.5855 19.1979 22.2218 24.7252 14.3717 24.7252C6.52167 24.7252 0.157959 19.1979 0.157959 12.3797C0.157959 5.56146 6.52167 0.0341797 14.3717 0.0341797C22.2218 0.0341797 28.5855 5.56146 28.5855 12.3797Z" fill="white"/>
<path d="M24.045 5.72684C24.045 6.67381 23.1611 7.4415 22.0708 7.4415C20.9805 7.4415 20.0967 6.67381 20.0967 5.72684C20.0967 4.77986 20.9805 4.01221 22.0708 4.01221C23.1611 4.01221 24.045 4.77986 24.045 5.72684Z" fill="white"/>
<path d="M24.045 5.69245C24.045 6.63943 23.1611 7.40708 22.0708 7.40708C20.9805 7.40708 20.0967 6.63943 20.0967 5.69245C20.0967 4.74547 20.9805 3.97778 22.0708 3.97778C23.1611 3.97778 24.045 4.74547 24.045 5.69245Z" fill="#FB0932"/>
<path fill-rule="evenodd" clip-rule="evenodd" d="M22.0708 8.43602C23.8153 8.43602 25.2295 7.20772 25.2295 5.69258C25.2295 5.61968 25.2262 5.54746 25.2198 5.47603C26.8397 7.40261 27.7958 9.77702 27.7958 12.3454C27.7958 18.7849 21.7857 24.005 14.3717 24.005C6.9578 24.005 0.947632 18.7849 0.947632 12.3454C0.947632 5.90597 6.9578 0.685791 14.3717 0.685791C17.3535 0.685791 20.1083 1.53018 22.3362 2.95868C22.2488 2.95235 22.1602 2.94913 22.0708 2.94913C20.3264 2.94913 18.9122 4.1774 18.9122 5.69258C18.9122 7.20772 20.3264 8.43602 22.0708 8.43602ZM22.0708 7.40721C23.1612 7.40721 24.045 6.63956 24.045 5.69258C24.045 4.7456 23.1612 3.97792 22.0708 3.97792C20.9806 3.97792 20.0967 4.7456 20.0967 5.69258C20.0967 6.63956 20.9806 7.40721 22.0708 7.40721ZM14.3717 16.1176C16.7704 16.1176 18.7148 14.4288 18.7148 12.3454C18.7148 10.2621 16.7704 8.57318 14.3717 8.57318C11.9731 8.57318 10.0287 10.2621 10.0287 12.3454C10.0287 14.4288 11.9731 16.1176 14.3717 16.1176Z" fill="#FB0932"/>
<path fill-rule="evenodd" clip-rule="evenodd" d="M20.9015 8.96094C20.9051 8.9619 20.9087 8.96289 20.9123 8.96382L20.9206 8.96602L20.9258 8.96739C20.9432 8.97196 20.9606 8.97646 20.9781 8.98085C20.9528 8.97378 20.9273 8.96715 20.9015 8.96094Z" fill="white"/>
<path fill-rule="evenodd" clip-rule="evenodd" d="M16.4051 8.84751C17.4953 8.84751 18.3792 8.07982 18.3792 7.13288C18.3792 6.96993 18.353 6.81231 18.3041 6.66299C18.301 6.65389 18.2979 6.64472 18.2949 6.63562C18.267 6.55551 18.2325 6.4779 18.192 6.40321C17.9647 5.98394 17.5475 5.65654 17.0368 5.50681H17.0367C16.8384 5.44864 16.626 5.41821 16.4051 5.41821C15.3148 5.41821 14.4309 6.1859 14.4309 7.13288C14.4309 8.07982 15.3148 8.84751 16.4051 8.84751Z" fill="white"/>
<path d="M20.373 12.3282C21.4633 12.3282 22.3472 11.5606 22.3472 10.6136C22.3472 10.4331 22.3151 10.2592 22.2556 10.0958C22.0633 9.56788 21.5848 9.15044 20.9782 8.98096C20.9606 8.97657 20.9432 8.97207 20.9258 8.9675L20.9206 8.96613L20.9123 8.96393C20.9087 8.963 20.9051 8.96201 20.9015 8.96105C20.7333 8.92056 20.5561 8.89893 20.373 8.89893C19.2828 8.89893 18.3989 9.66661 18.3989 10.6136C18.3989 11.5606 19.2828 12.3282 20.373 12.3282Z" fill="white"/>
<path d="M14.3717 19.5298C18.9509 19.5298 22.6631 16.3055 22.6631 12.3282C22.6631 11.5521 22.5173 10.7965 22.2556 10.0958C22.3151 10.2592 22.3472 10.4331 22.3472 10.6136C22.3472 11.5606 21.4633 12.3282 20.373 12.3282C19.2828 12.3282 18.3989 11.5606 18.3989 10.6136C18.3989 9.66661 19.2828 8.89893 20.373 8.89893C20.5561 8.89893 20.7333 8.92056 20.9015 8.96105C19.6477 8.62379 18.6787 7.75525 18.3041 6.66297C18.353 6.81229 18.3792 6.96991 18.3792 7.13286C18.3792 8.0798 17.4953 8.84749 16.4051 8.84749C15.3148 8.84749 14.4309 8.0798 14.4309 7.13286C14.4309 6.18588 15.3148 5.41819 16.4051 5.41819C16.626 5.41819 16.8384 5.44862 17.0367 5.50679C16.2003 5.26033 15.304 5.12671 14.3717 5.12671C9.79251 5.12671 6.08032 8.35092 6.08032 12.3282C6.08032 16.3055 9.79251 19.5298 14.3717 19.5298Z" fill="white"/>
<path d="M18.7149 12.3455C18.7149 14.4288 16.7704 16.1177 14.3718 16.1177C11.9732 16.1177 10.0287 14.4288 10.0287 12.3455C10.0287 10.2622 11.9732 8.57324 14.3718 8.57324C16.7704 8.57324 18.7149 10.2622 18.7149 12.3455Z" fill="#FB0932"/>
<path d="M24.045 5.69245C24.045 6.63943 23.1611 7.40708 22.0708 7.40708C20.9805 7.40708 20.0967 6.63943 20.0967 5.69245C20.0967 4.74547 20.9805 3.97778 22.0708 3.97778C23.1611 3.97778 24.045 4.74547 24.045 5.69245Z" fill="#FB0932"/>
</g>
<path d="M37.0268 16.0989C36.1739 16.0989 35.4159 15.9433 34.7526 15.6319C34.0998 15.3114 33.5839 14.8764 33.2048 14.327C32.8364 13.7775 32.6521 13.1456 32.6521 12.4314C32.6521 11.8636 32.7574 11.3462 32.968 10.8792C33.1785 10.4121 33.4681 10.0092 33.8366 9.67037C34.2156 9.3224 34.6631 9.05681 35.179 8.87367C35.7054 8.68136 36.274 8.58521 36.8846 8.58521C37.4216 8.58521 37.9217 8.67679 38.385 8.85993C38.8482 9.03393 39.2483 9.27659 39.5854 9.58795C39.9327 9.89932 40.196 10.2702 40.3748 10.7006C40.5643 11.1218 40.6539 11.5843 40.6433 12.088L40.6275 12.6923H33.8524L33.4891 11.566H39.222L38.9851 11.7995V11.4698C38.9535 11.1676 38.8377 10.8975 38.6377 10.6594C38.4376 10.4213 38.1849 10.2336 37.8796 10.0962C37.5743 9.95883 37.2426 9.89015 36.8846 9.89015C36.3161 9.89015 35.837 9.9863 35.4475 10.1786C35.0579 10.3618 34.7631 10.6365 34.5631 11.0028C34.363 11.3599 34.263 11.8041 34.263 12.3352C34.263 12.8389 34.3841 13.2784 34.6262 13.6539C34.8684 14.0202 35.2106 14.3041 35.6528 14.5055C36.095 14.707 36.6056 14.8077 37.1847 14.8077C37.5953 14.8077 37.9744 14.7482 38.3218 14.6292C38.6798 14.5101 39.0641 14.2949 39.4749 13.9836L40.2959 14.9863C40.0433 15.2061 39.7326 15.3984 39.3642 15.5632C39.0062 15.7281 38.6219 15.8609 38.2113 15.9616C37.8112 16.0532 37.4163 16.0989 37.0268 16.0989Z" fill="#030303"/>
<path d="M42 16.3352V9.12363H43.6425V10.6621L43.3425 10.8269C43.4266 10.5888 43.558 10.3599 43.7372 10.1401C43.9267 9.92033 44.1529 9.72802 44.4162 9.56319C44.6901 9.38918 44.9795 9.25182 45.285 9.1511C45.6008 9.05038 45.9217 9 46.2482 9C46.7222 9 47.1379 9.06868 47.4959 9.20604C47.8539 9.34341 48.1488 9.54945 48.3801 9.82418C48.6118 10.0989 48.7804 10.4423 48.8858 10.8544L48.6332 10.7995L48.7437 10.5659C48.8593 10.3553 49.0172 10.1584 49.2174 9.97527C49.4278 9.78297 49.665 9.61356 49.9279 9.46703C50.1912 9.3205 50.4703 9.20604 50.7651 9.12363C51.06 9.04121 51.3493 9 51.6336 9C52.2549 9 52.7657 9.10989 53.1655 9.32967C53.5761 9.54945 53.8816 9.88369 54.0817 10.3324C54.2921 10.7811 54.3975 11.3397 54.3975 12.0082V16.3352H52.755V12.0907C52.755 11.4771 52.618 11.0284 52.3445 10.7445C52.0812 10.4515 51.6651 10.3049 51.0967 10.3049C50.8018 10.3049 50.5228 10.3507 50.2599 10.4423C50.0068 10.5247 49.7858 10.6438 49.5963 10.7995C49.4068 10.9551 49.2596 11.1383 49.1542 11.3489C49.0488 11.5504 48.9963 11.7747 48.9963 12.022V16.3352H47.3538V12.0632C47.3538 11.4954 47.2117 11.0604 46.9275 10.7582C46.6536 10.456 46.2537 10.3049 45.7271 10.3049C45.4322 10.3049 45.1587 10.3507 44.9057 10.4423C44.653 10.5247 44.432 10.6438 44.2425 10.7995C44.053 10.946 43.9058 11.1246 43.8004 11.3352C43.695 11.5366 43.6425 11.7564 43.6425 11.9945V16.3352H42Z" fill="#030303"/>
<path d="M60.6821 16.0989C59.8713 16.0989 59.145 15.9386 58.5027 15.6181C57.8712 15.2884 57.371 14.8443 57.0023 14.2857C56.634 13.7179 56.4497 13.0723 56.4497 12.3489C56.4497 11.6254 56.634 10.9844 57.0023 10.4258C57.371 9.85805 57.8712 9.41388 58.5027 9.09338C59.145 8.76371 59.8713 8.59888 60.6821 8.59888C61.4822 8.59888 62.1983 8.76371 62.8302 9.09338C63.4725 9.41388 63.9777 9.85805 64.346 10.4258C64.7147 10.9844 64.899 11.6254 64.899 12.3489C64.899 13.0723 64.7147 13.7179 64.346 14.2857C63.9777 14.8443 63.4725 15.2884 62.8302 15.6181C62.1983 15.9386 61.4822 16.0989 60.6821 16.0989ZM60.6821 14.8077C61.1771 14.8077 61.6192 14.7023 62.0088 14.4917C62.3984 14.272 62.7035 13.9789 62.925 13.6126C63.146 13.2372 63.251 12.8159 63.2408 12.3489C63.251 11.8727 63.146 11.4515 62.925 11.0851C62.7035 10.7097 62.3984 10.4166 62.0088 10.206C61.6192 9.99541 61.1771 9.89009 60.6821 9.89009C60.1875 9.89009 59.7398 9.99998 59.34 10.2198C58.9504 10.4304 58.6448 10.7234 58.4238 11.0989C58.2027 11.4652 58.0973 11.8818 58.108 12.3489C58.0973 12.8159 58.2027 13.2372 58.4238 13.6126C58.6448 13.9789 58.9504 14.272 59.34 14.4917C59.7398 14.7023 60.1875 14.8077 60.6821 14.8077Z" fill="#030303"/>
<path d="M66.9398 15.9615V8.75H68.5665V15.9615H66.9398Z" fill="#030303"/>
<path d="M71.7304 16.1127C71.383 16.1127 71.1142 16.0257 70.9247 15.8517C70.7352 15.6686 70.6405 15.4121 70.6405 15.0825C70.6405 14.7803 70.7408 14.533 70.9405 14.3407C71.1406 14.1484 71.4039 14.0522 71.7304 14.0522C72.0777 14.0522 72.3462 14.1438 72.5356 14.327C72.7251 14.501 72.8198 14.7528 72.8198 15.0825C72.8198 15.3847 72.72 15.6319 72.5198 15.8242C72.3197 16.0165 72.0568 16.1127 71.7304 16.1127Z" fill="#030303"/>
<path d="M74.929 15.9615V8.75H76.5557V15.9615H74.929Z" fill="#030303"/>
<path d="M82.7834 16.0989C81.9726 16.0989 81.2459 15.9386 80.6037 15.6181C79.9721 15.2884 79.472 14.8443 79.1033 14.2857C78.735 13.7179 78.5507 13.0723 78.5507 12.3489C78.5507 11.6254 78.735 10.9844 79.1033 10.4258C79.472 9.85805 79.9721 9.41388 80.6037 9.09338C81.2459 8.76371 81.9726 8.59888 82.7834 8.59888C83.5836 8.59888 84.2992 8.76371 84.9312 9.09338C85.5734 9.41388 86.0787 9.85805 86.4474 10.4258C86.8157 10.9844 87 11.6254 87 12.3489C87 13.0723 86.8157 13.7179 86.4474 14.2857C86.0787 14.8443 85.5734 15.2884 84.9312 15.6181C84.2992 15.9386 83.5836 16.0989 82.7834 16.0989ZM82.7834 14.8077C83.278 14.8077 83.7201 14.7023 84.1097 14.4917C84.4993 14.272 84.8049 13.9789 85.0259 13.6126C85.247 13.2372 85.3524 12.8159 85.3417 12.3489C85.3524 11.8727 85.247 11.4515 85.0259 11.0851C84.8049 10.7097 84.4993 10.4166 84.1097 10.206C83.7201 9.99541 83.278 9.89009 82.7834 9.89009C82.2884 9.89009 81.8408 9.99998 81.4409 10.2198C81.0513 10.4304 80.7458 10.7234 80.5247 11.0989C80.3037 11.4652 80.1983 11.8818 80.2089 12.3489C80.1983 12.8159 80.3037 13.2372 80.5247 13.6126C80.7458 13.9789 81.0513 14.272 81.4409 14.4917C81.8408 14.7023 82.2884 14.8077 82.7834 14.8077Z" fill="#030303"/>
</g>
<defs>
<filter id="filter0_i_3210_857" x="0.157837" y="0.0341797" width="28.4275" height="28.6909" filterUnits="userSpaceOnUse" color-interpolation-filters="sRGB">
<feFlood flood-opacity="0" result="BackgroundImageFix"/>
<feBlend mode="normal" in="SourceGraphic" in2="BackgroundImageFix" result="shape"/>
<feColorMatrix in="SourceAlpha" type="matrix" values="0 0 0 0 0 0 0 0 0 0 0 0 0 0 0 0 0 0 127 0" result="hardAlpha"/>
<feOffset dy="4"/>
<feGaussianBlur stdDeviation="2"/>
<feComposite in2="hardAlpha" operator="arithmetic" k2="-1" k3="1"/>
<feColorMatrix type="matrix" values="0 0 0 0 0 0 0 0 0 0 0 0 0 0 0 0 0 0 0.25 0"/>
<feBlend mode="normal" in2="shape" result="effect1_innerShadow_3210_857"/>
</filter>
<filter id="filter1_i_3210_857" x="0.157959" y="0.0341797" width="28.4275" height="28.6909" filterUnits="userSpaceOnUse" color-interpolation-filters="sRGB">
<feFlood flood-opacity="0" result="BackgroundImageFix"/>
<feBlend mode="normal" in="SourceGraphic" in2="BackgroundImageFix" result="shape"/>
<feColorMatrix in="SourceAlpha" type="matrix" values="0 0 0 0 0 0 0 0 0 0 0 0 0 0 0 0 0 0 127 0" result="hardAlpha"/>
<feOffset dy="4"/>
<feGaussianBlur stdDeviation="2"/>
<feComposite in2="hardAlpha" operator="arithmetic" k2="-1" k3="1"/>
<feColorMatrix type="matrix" values="0 0 0 0 0 0 0 0 0 0 0 0 0 0 0 0 0 0 0.25 0"/>
<feBlend mode="normal" in2="shape" result="effect1_innerShadow_3210_857"/>
</filter>
<clipPath id="clip0_3210_857">
<rect width="87" height="25" fill="white"/>
</clipPath>
</defs>
</svg>
