<svg width="1092" height="360" viewBox="0 0 1092 360" fill="none" xmlns="http://www.w3.org/2000/svg">
<g filter="url(#filter0_i_856_344)">
<path d="M358.796 178.269C358.796 276.452 278.92 356.044 180.389 356.044C81.857 356.044 1.98145 276.452 1.98145 178.269C1.98145 80.087 81.857 0.494141 180.389 0.494141C278.92 0.494141 358.796 80.087 358.796 178.269Z" fill="white"/>
<path d="M301.805 82.468C301.805 96.1045 290.711 107.159 277.026 107.159C263.341 107.159 252.247 96.1045 252.247 82.468C252.247 68.8315 263.341 57.7773 277.026 57.7773C290.711 57.7773 301.805 68.8315 301.805 82.468Z" fill="white"/>
<path d="M301.805 81.9744C301.805 95.6108 290.711 106.665 277.026 106.665C263.341 106.665 252.247 95.6108 252.247 81.9744C252.247 68.3379 263.341 57.2832 277.026 57.2832C290.711 57.2832 301.805 68.3379 301.805 81.9744Z" fill="#FB0932"/>
<path fill-rule="evenodd" clip-rule="evenodd" d="M277.025 121.48C298.921 121.48 316.671 103.793 316.671 81.9747C316.671 80.9249 316.63 79.8849 316.55 78.8564C336.883 106.599 348.884 140.791 348.884 177.776C348.884 270.503 273.446 345.674 180.388 345.674C87.3305 345.674 11.8926 270.503 11.8926 177.776C11.8926 85.0476 87.3305 9.87695 180.388 9.87695C217.815 9.87695 252.391 22.0362 280.356 42.6065C279.258 42.5155 278.147 42.469 277.025 42.469C255.129 42.469 237.379 60.1561 237.379 81.9747C237.379 103.793 255.129 121.48 277.025 121.48ZM277.025 106.665C290.711 106.665 301.804 95.6112 301.804 81.9747C301.804 68.3382 290.711 57.2836 277.025 57.2836C263.341 57.2836 252.247 68.3382 252.247 81.9747C252.247 95.6112 263.341 106.665 277.025 106.665ZM180.388 232.096C210.495 232.096 234.902 207.776 234.902 177.776C234.902 147.776 210.495 123.455 180.388 123.455C150.282 123.455 125.875 147.776 125.875 177.776C125.875 207.776 150.282 232.096 180.388 232.096Z" fill="#FB0932"/>
<path fill-rule="evenodd" clip-rule="evenodd" d="M262.35 129.041C262.395 129.055 262.44 129.069 262.485 129.083L262.589 129.114L262.655 129.134C262.873 129.2 263.092 129.265 263.312 129.328C262.994 129.226 262.673 129.131 262.35 129.041Z" fill="white"/>
<path fill-rule="evenodd" clip-rule="evenodd" d="M205.911 127.405C219.596 127.405 230.69 116.351 230.69 102.715C230.69 100.368 230.361 98.0984 229.748 95.9483C229.708 95.8172 229.67 95.6852 229.632 95.5541C229.281 94.4005 228.849 93.2829 228.341 92.2073C225.487 86.1699 220.251 81.4553 213.84 79.2993H213.839C211.35 78.4616 208.684 78.0234 205.911 78.0234C192.226 78.0234 181.132 89.0781 181.132 102.715C181.132 116.351 192.226 127.405 205.911 127.405Z" fill="white"/>
<path d="M255.716 177.528C269.401 177.528 280.495 166.474 280.495 152.838C280.495 150.239 280.092 147.734 279.345 145.382C276.932 137.779 270.925 131.768 263.312 129.328C263.092 129.265 262.873 129.2 262.655 129.134L262.589 129.114L262.485 129.083C262.44 129.069 262.394 129.055 262.349 129.041C260.238 128.458 258.014 128.146 255.716 128.146C242.031 128.146 230.938 139.201 230.938 152.838C230.938 166.474 242.031 177.528 255.716 177.528Z" fill="white"/>
<path d="M180.388 281.23C237.865 281.23 284.459 234.801 284.459 177.528C284.459 166.352 282.63 155.471 279.345 145.382C280.092 147.734 280.495 150.239 280.495 152.837C280.495 166.474 269.401 177.528 255.716 177.528C242.031 177.528 230.937 166.474 230.937 152.837C230.937 139.201 242.031 128.146 255.716 128.146C258.014 128.146 260.238 128.458 262.349 129.041C246.612 124.184 234.449 111.677 229.747 95.9484C230.361 98.0985 230.689 100.368 230.689 102.715C230.689 116.351 219.595 127.405 205.911 127.405C192.225 127.405 181.132 116.351 181.132 102.715C181.132 89.0782 192.225 78.0235 205.911 78.0235C208.683 78.0235 211.35 78.4617 213.839 79.2994C203.341 75.7503 192.09 73.8262 180.388 73.8262C122.912 73.8262 76.3174 120.255 76.3174 177.528C76.3174 234.801 122.912 281.23 180.388 281.23Z" fill="white"/>
<path d="M234.902 177.776C234.902 207.776 210.495 232.095 180.388 232.095C150.281 232.095 125.875 207.776 125.875 177.776C125.875 147.775 150.281 123.455 180.388 123.455C210.495 123.455 234.902 147.775 234.902 177.776Z" fill="#FB0932"/>
<path d="M301.805 81.9744C301.805 95.6108 290.711 106.665 277.026 106.665C263.341 106.665 252.247 95.6108 252.247 81.9744C252.247 68.3379 263.341 57.2832 277.026 57.2832C290.711 57.2832 301.805 68.3379 301.805 81.9744Z" fill="#FB0932"/>
</g>
<path d="M464.75 231.825C454.046 231.825 444.531 229.583 436.205 225.099C428.012 220.484 421.536 214.22 416.779 206.308C412.154 198.396 409.841 189.297 409.841 179.012C409.841 170.836 411.162 163.385 413.806 156.66C416.448 149.935 420.083 144.133 424.708 139.253C429.466 134.243 435.082 130.418 441.558 127.781C448.165 125.012 455.302 123.627 462.966 123.627C469.706 123.627 475.984 124.946 481.798 127.583C487.613 130.089 492.635 133.583 496.865 138.067C501.225 142.55 504.53 147.891 506.775 154.088C509.153 160.155 510.278 166.814 510.144 174.067L509.946 182.77H424.906L420.347 166.55H492.305L489.331 169.913V165.165C488.935 160.814 487.481 156.923 484.97 153.495C482.459 150.067 479.287 147.363 475.455 145.385C471.623 143.407 467.46 142.418 462.966 142.418C455.83 142.418 449.817 143.803 444.928 146.572C440.038 149.209 436.338 153.165 433.827 158.44C431.316 163.583 430.06 169.978 430.06 177.627C430.06 184.88 431.58 191.21 434.619 196.616C437.659 201.891 441.954 205.978 447.504 208.88C453.055 211.781 459.464 213.231 466.733 213.231C471.887 213.231 476.645 212.374 481.006 210.66C485.498 208.945 490.322 205.847 495.478 201.363L505.784 215.803C502.613 218.968 498.713 221.737 494.089 224.11C489.595 226.484 484.772 228.396 479.618 229.847C474.596 231.166 469.64 231.825 464.75 231.825Z" fill="#111111"/>
<path d="M531.938 229.847V126.001H552.555V148.155L548.789 150.528C549.845 147.1 551.494 143.803 553.744 140.638C556.122 137.473 558.961 134.704 562.266 132.331C565.704 129.825 569.336 127.847 573.171 126.397C577.135 124.946 581.163 124.221 585.26 124.221C591.211 124.221 596.428 125.21 600.922 127.188C605.416 129.166 609.117 132.133 612.02 136.089C614.928 140.045 617.044 144.99 618.367 150.924L615.196 150.133L616.583 146.77C618.035 143.737 620.017 140.902 622.529 138.265C625.17 135.495 628.147 133.056 631.447 130.946C634.752 128.836 638.255 127.188 641.956 126.001C645.657 124.814 649.289 124.221 652.856 124.221C660.655 124.221 667.066 125.803 672.085 128.968C677.238 132.133 681.073 136.946 683.585 143.408C686.226 149.869 687.548 157.913 687.548 167.539V229.847H666.932V168.726C666.932 159.891 665.213 153.43 661.779 149.342C658.475 145.122 653.253 143.012 646.118 143.012C642.417 143.012 638.914 143.671 635.614 144.99C632.438 146.177 629.664 147.891 627.285 150.133C624.907 152.374 623.059 155.012 621.736 158.045C620.413 160.946 619.754 164.177 619.754 167.737V229.847H599.138V168.331C599.138 160.155 597.354 153.891 593.787 149.539C590.349 145.188 585.33 143.012 578.72 143.012C575.019 143.012 571.585 143.671 568.409 144.99C565.239 146.177 562.464 147.891 560.086 150.133C557.708 152.243 555.859 154.814 554.537 157.847C553.214 160.748 552.555 163.913 552.555 167.342V229.847H531.938Z" fill="#111111"/>
<path d="M761.666 231.824C751.489 231.824 742.372 229.516 734.311 224.901C726.384 220.154 720.106 213.758 715.478 205.714C710.856 197.539 708.542 188.242 708.542 177.824C708.542 167.406 710.856 158.176 715.478 150.132C720.106 141.956 726.384 135.56 734.311 130.945C742.372 126.198 751.489 123.824 761.666 123.824C771.709 123.824 780.696 126.198 788.629 130.945C796.69 135.56 803.032 141.956 807.654 150.132C812.282 158.176 814.596 167.406 814.596 177.824C814.596 188.242 812.282 197.539 807.654 205.714C803.032 213.758 796.69 220.154 788.629 224.901C780.696 229.516 771.709 231.824 761.666 231.824ZM761.666 213.231C767.879 213.231 773.428 211.714 778.318 208.681C783.208 205.517 787.038 201.297 789.818 196.022C792.592 190.616 793.91 184.549 793.781 177.824C793.91 170.967 792.592 164.901 789.818 159.626C787.038 154.22 783.208 150 778.318 146.967C773.428 143.934 767.879 142.418 761.666 142.418C755.457 142.418 749.839 144 744.82 147.165C739.93 150.198 736.095 154.418 733.32 159.824C730.545 165.099 729.223 171.099 729.356 177.824C729.223 184.549 730.545 190.616 733.32 196.022C736.095 201.297 739.93 205.517 744.82 208.681C749.839 211.714 755.457 213.231 761.666 213.231Z" fill="#111111"/>
<path d="M840.211 229.846V126H860.629V229.846H840.211Z" fill="#111111"/>
<path d="M900.34 232.022C895.98 232.022 892.606 230.769 890.227 228.264C887.849 225.626 886.66 221.934 886.66 217.187C886.66 212.835 887.919 209.275 890.426 206.505C892.938 203.736 896.242 202.352 900.34 202.352C904.7 202.352 908.069 203.67 910.447 206.308C912.825 208.813 914.015 212.439 914.015 217.187C914.015 221.538 912.761 225.099 910.249 227.868C907.737 230.637 904.437 232.022 900.34 232.022Z" fill="#111111"/>
<path d="M940.487 229.846V126H960.905V229.846H940.487Z" fill="#111111"/>
<path d="M1039.07 231.824C1028.9 231.824 1019.78 229.516 1011.72 224.901C1003.79 220.154 997.51 213.758 992.883 205.714C988.26 197.539 985.946 188.242 985.946 177.824C985.946 167.406 988.26 158.176 992.883 150.132C997.51 141.956 1003.79 135.56 1011.72 130.945C1019.78 126.198 1028.9 123.824 1039.07 123.824C1049.12 123.824 1058.1 126.198 1066.03 130.945C1074.09 135.56 1080.44 141.956 1085.06 150.132C1089.69 158.176 1092 167.406 1092 177.824C1092 188.242 1089.69 197.539 1085.06 205.714C1080.44 213.758 1074.09 220.154 1066.03 224.901C1058.1 229.516 1049.12 231.824 1039.07 231.824ZM1039.07 213.231C1045.28 213.231 1050.83 211.714 1055.72 208.681C1060.61 205.517 1064.45 201.297 1067.22 196.022C1070 190.616 1071.32 184.549 1071.19 177.824C1071.32 170.967 1070 164.901 1067.22 159.626C1064.45 154.22 1060.61 150 1055.72 146.967C1050.83 143.934 1045.28 142.418 1039.07 142.418C1032.86 142.418 1027.24 144 1022.22 147.165C1017.33 150.198 1013.5 154.418 1010.72 159.824C1007.95 165.099 1006.63 171.099 1006.76 177.824C1006.63 184.549 1007.95 190.616 1010.72 196.022C1013.5 201.297 1017.33 205.517 1022.22 208.681C1027.24 211.714 1032.86 213.231 1039.07 213.231Z" fill="#111111"/>
<defs>
<filter id="filter0_i_856_344" x="1.98145" y="0.494141" width="356.814" height="359.551" filterUnits="userSpaceOnUse" color-interpolation-filters="sRGB">
<feFlood flood-opacity="0" result="BackgroundImageFix"/>
<feBlend mode="normal" in="SourceGraphic" in2="BackgroundImageFix" result="shape"/>
<feColorMatrix in="SourceAlpha" type="matrix" values="0 0 0 0 0 0 0 0 0 0 0 0 0 0 0 0 0 0 127 0" result="hardAlpha"/>
<feOffset dy="4"/>
<feGaussianBlur stdDeviation="2"/>
<feComposite in2="hardAlpha" operator="arithmetic" k2="-1" k3="1"/>
<feColorMatrix type="matrix" values="0 0 0 0 0 0 0 0 0 0 0 0 0 0 0 0 0 0 0.25 0"/>
<feBlend mode="normal" in2="shape" result="effect1_innerShadow_856_344"/>
</filter>
</defs>
</svg>
